<?xml version="1.0" encoding="UTF-8" standalone="no"?>
<!DOCTYPE svg PUBLIC "-//W3C//DTD SVG 1.1//EN" "http://www.w3.org/Graphics/SVG/1.1/DTD/svg11.dtd">
<!-- Generated by Microsoft Visio, SVG Export Secure-Boot-Mode-3-generate.svg Page-1 -->
<svg xmlns="http://www.w3.org/2000/svg" xmlns:xlink="http://www.w3.org/1999/xlink" xmlns:ev="http://www.w3.org/2001/xml-events"
		xmlns:v="http://schemas.microsoft.com/visio/2003/SVGExtensions/" width="9.94789in" height="3.7471in"
		viewBox="0 0 716.248 269.791" xml:space="preserve" color-interpolation-filters="sRGB" class="st21">
	<v:documentProperties v:langID="1033" v:metric="true" v:viewMarkup="false"/>

	<style type="text/css">
	<![CDATA[
		.st1 {visibility:visible}
		.st2 {fill:#5b9bd5;fill-opacity:0.22;filter:url(#filter_2);stroke:#5b9bd5;stroke-opacity:0.22}
		.st3 {fill:#6cc24a;stroke:#c7c8c8;stroke-width:0.25}
		.st4 {fill:#feffff;font-family:Calibri;font-size:0.833336em}
		.st5 {font-size:1em}
		.st6 {fill:#d1dde6;stroke:#000000;stroke-width:0.25}
		.st7 {fill:#000000;font-family:Calibri;font-size:0.833336em}
		.st8 {marker-end:url(#mrkr4-30);stroke:#000000;stroke-linecap:round;stroke-linejoin:round;stroke-width:0.5}
		.st9 {fill:#000000;fill-opacity:1;stroke:#000000;stroke-opacity:1;stroke-width:0.16556291390728}
		.st10 {fill:none;filter:url(#filter_2);stroke:#5b9bd5;stroke-opacity:0.22}
		.st11 {stroke:#000000;stroke-width:0.25}
		.st12 {fill:#000000}
		.st13 {stroke:#000000;stroke-linecap:round;stroke-linejoin:round;stroke-width:1}
		.st14 {fill:#ffffff;stroke:#ffffff;stroke-width:0.25}
		.st15 {fill:#000000;font-family:Calibri;font-size:0.833336em;font-style:italic}
		.st16 {fill:#f68d2e;stroke:#c7c8c8;stroke-width:0.25}
		.st17 {fill:#000000;font-family:Calibri;font-size:0.666664em}
		.st18 {fill:#ffffff;stroke:none;stroke-width:0.25}
		.st19 {baseline-shift:-32.4947%;font-size:0.649894em}
		.st20 {fill:none;stroke:none;stroke-width:0.25}
		.st21 {fill:none;fill-rule:evenodd;font-size:12px;overflow:visible;stroke-linecap:square;stroke-miterlimit:3}
	]]>
	</style>

	<defs id="Markers">
		<g id="lend4">
			<path d="M 2 1 L 0 0 L 2 -1 L 2 1 " style="stroke:none"/>
		</g>
		<marker id="mrkr4-30" class="st9" v:arrowType="4" v:arrowSize="2" v:setback="12.08" refX="-12.08" orient="auto"
				markerUnits="strokeWidth" overflow="visible">
			<use xlink:href="#lend4" transform="scale(-6.04,-6.04) "/>
		</marker>
	</defs>
	<defs id="Filters">
		<filter id="filter_2">
			<feGaussianBlur stdDeviation="2"/>
		</filter>
	</defs>
	<g v:mID="0" v:index="1" v:groupContext="foregroundPage">
		<title>Page-1</title>
		<v:pageProperties v:drawingScale="0.0393701" v:pageScale="0.0393701" v:drawingUnits="24" v:shadowOffsetX="8.50394"
				v:shadowOffsetY="-8.50394"/>
		<v:layer v:name="Connector" v:index="0"/>
		<g id="shape1-1" v:mID="1" v:groupContext="shape" transform="translate(227.022,-35.6831)">
			<title>Ellipse</title>
			<desc>Generate SHA-384 Hash</desc>
			<v:userDefs>
				<v:ud v:nameU="visVersion" v:val="VT0(15):26"/>
			</v:userDefs>
			<v:textBlock v:margins="rect(4,4,4,4)" v:tabSpace="42.5197"/>
			<v:textRect cx="42.5197" cy="241.445" width="74.41" height="49.6063"/>
			<g id="shadow1-2" v:groupContext="shadow" v:shadowOffsetX="0.345598" v:shadowOffsetY="-1.97279" v:shadowType="1"
					transform="matrix(1,0,0,1,0.345598,1.97279)" class="st1">
				<path d="M0 241.44 A42.5197 28.3465 0 0 1 85.04 241.44 A42.5197 28.3465 0 0 1 -0 241.44 Z" class="st2"/>
			</g>
			<path d="M0 241.44 A42.5197 28.3465 0 0 1 85.04 241.44 A42.5197 28.3465 0 0 1 -0 241.44 Z" class="st3"/>
			<text x="23.46" y="232.45" class="st4" v:langID="1033"><v:paragraph v:horizAlign="1"/><v:tabList/>Generate<v:newlineChar/><tspan
						x="25.08" dy="1.2em" class="st5">SHA</tspan>-384<v:newlineChar/><tspan x="32.43" dy="1.2em" class="st5">Hash</tspan></text>		</g>
		<g id="shape2-9" v:mID="2" v:groupContext="shape" transform="translate(574.266,-106.549)">
			<title>Ellipse.2</title>
			<desc>Generate ECDSA Signature</desc>
			<v:userDefs>
				<v:ud v:nameU="visVersion" v:val="VT0(15):26"/>
			</v:userDefs>
			<v:textBlock v:margins="rect(4,4,4,4)" v:tabSpace="42.5197"/>
			<v:textRect cx="42.5197" cy="241.445" width="74.41" height="49.6063"/>
			<g id="shadow2-10" v:groupContext="shadow" v:shadowOffsetX="0.345598" v:shadowOffsetY="-1.97279" v:shadowType="1"
					transform="matrix(1,0,0,1,0.345598,1.97279)" class="st1">
				<path d="M0 241.44 A42.5197 28.3465 0 0 1 85.04 241.44 A42.5197 28.3465 0 1 1 0 241.44 Z" class="st2"/>
			</g>
			<path d="M0 241.44 A42.5197 28.3465 0 0 1 85.04 241.44 A42.5197 28.3465 0 1 1 0 241.44 Z" class="st3"/>
			<text x="23.46" y="232.45" class="st4" v:langID="1033"><v:paragraph v:horizAlign="1"/><v:tabList/>Generate <tspan
						x="29.15" dy="1.2em" class="st5">ECDSA<v:newlineChar/></tspan><tspan x="23.17" dy="1.2em" class="st5">Signature</tspan></text>		</g>
		<g id="shape19-17" v:mID="19" v:groupContext="shape" transform="translate(99.4626,-14.4232)">
			<title>Rectangle.9</title>
			<desc>User Boot Loader Executable Binary</desc>
			<v:userDefs>
				<v:ud v:nameU="visVersion" v:val="VT0(15):26"/>
			</v:userDefs>
			<v:textBlock v:margins="rect(4,4,4,4)" v:tabSpace="42.5197"/>
			<v:textRect cx="42.5197" cy="220.185" width="85.04" height="99.2126"/>
			<g id="shadow19-18" v:groupContext="shadow" v:shadowOffsetX="0.345598" v:shadowOffsetY="-1.97279" v:shadowType="1"
					transform="matrix(1,0,0,1,0.345598,1.97279)" class="st1">
				<rect x="0" y="170.579" width="85.0394" height="99.2126" class="st2"/>
			</g>
			<rect x="0" y="170.579" width="85.0394" height="99.2126" class="st6"/>
			<text x="7.2" y="211.19" class="st7" v:langID="1033"><v:paragraph v:horizAlign="1"/><v:tabList/>User Boot Loader <tspan
						x="20.35" dy="1.2em" class="st5">Executable<v:newlineChar/></tspan><tspan x="29.62" dy="1.2em" class="st5">Binary</tspan></text>		</g>
		<g id="shape25-25" v:mID="25" v:groupContext="shape" v:layerMember="0" transform="translate(616.785,-106.549)">
			<title>Dynamic connector</title>
			<v:userDefs>
				<v:ud v:nameU="visVersion" v:prompt="" v:val="VT0(15):26"/>
			</v:userDefs>
			<path d="M0 269.79 L0 326.48 L-188.13 326.48" class="st8"/>
		</g>
		<g id="shape28-31" v:mID="28" v:groupContext="shape" transform="translate(425.447,-56.9429)">
			<title>Right Parenthesis.28</title>
			<v:userDefs>
				<v:ud v:nameU="visVersion" v:prompt="" v:val="VT0(15):26"/>
			</v:userDefs>
			<g id="shadow28-32" v:groupContext="shadow" v:shadowOffsetX="0.345598" v:shadowOffsetY="-1.97279" v:shadowType="1"
					transform="matrix(1,0,0,1,0.345598,1.97279)" class="st1">
				<path d="M0 269.79 A9.07529 20.7976 -180 0 0 8.5 254.2 L8.5 129.48 A9.07529 20.7976 -180 0 0 0 113.89" class="st10"/>
			</g>
			<path d="M0 269.79 A9.07529 20.7976 -180 0 0 8.5 254.2 L8.5 129.48 A9.07529 20.7976 -180 0 0 0 113.89" class="st11"/>
		</g>
		<g id="shape29-39" v:mID="29" v:groupContext="shape" v:layerMember="0" transform="translate(433.951,-141.982)">
			<title>Dynamic connector.29</title>
			<v:userDefs>
				<v:ud v:nameU="visVersion" v:prompt="" v:val="VT0(15):26"/>
			</v:userDefs>
			<path d="M0 276.88 L25.14 276.88" class="st8"/>
		</g>
		<g id="shape31-44" v:mID="31" v:groupContext="shape" v:layerMember="0" transform="translate(312.061,-56.9429)">
			<title>Dynamic connector.31</title>
			<v:userDefs>
				<v:ud v:nameU="visVersion" v:prompt="" v:val="VT0(15):26"/>
			</v:userDefs>
			<path d="M0 262.7 L19.47 262.7" class="st8"/>
		</g>
		<g id="shape32-49" v:mID="32" v:groupContext="shape" transform="translate(187.337,-14.4232)">
			<title>Right Parenthesis.32</title>
			<v:userDefs>
				<v:ud v:nameU="visVersion" v:prompt="" v:val="VT0(15):26"/>
			</v:userDefs>
			<g id="shadow32-50" v:groupContext="shadow" v:shadowOffsetX="0.345598" v:shadowOffsetY="-1.97279" v:shadowType="1"
					transform="matrix(1,0,0,1,0.345598,1.97279)" class="st1">
				<path d="M0 269.79 A9.07529 13.2348 -180 0 0 8.5 259.87 L8.5 180.5 A9.07529 13.2348 -180 0 0 -0 170.58"
						class="st10"/>
			</g>
			<path d="M0 269.79 A9.07529 13.2348 -180 0 0 8.5 259.87 L8.5 180.5 A9.07529 13.2348 -180 0 0 -0 170.58" class="st11"/>
		</g>
		<g id="shape33-57" v:mID="33" v:groupContext="shape" v:layerMember="0" transform="translate(195.841,-56.9429)">
			<title>Dynamic connector.33</title>
			<v:userDefs>
				<v:ud v:nameU="visVersion" v:prompt="" v:val="VT0(15):26"/>
			</v:userDefs>
			<path d="M0 262.7 L25.14 262.7" class="st8"/>
		</g>
		<g id="shape36-62" v:mID="36" v:groupContext="shape" v:layerMember="0" transform="translate(355.081,158.99) rotate(90)">
			<title>Dot &#38; arrow</title>
			<v:userDefs>
				<v:ud v:nameU="Scale" v:val="VT0(1):26"/>
				<v:ud v:nameU="AntiScale" v:val="VT0(1):26"/>
				<v:ud v:nameU="visVersion" v:val="VT0(15):26"/>
			</v:userDefs>
			<path d="M98.36 269.79 A1.97986 1.97986 -180 0 0 94.4 269.79 A1.97986 1.97986 -180 0 0 98.36 269.79 ZM3.96 267.81 L3.96
						 271.77 L0 269.79 L3.96 267.81 Z" class="st12"/>
			<path d="M98.36 269.79 A1.97986 1.97986 -180 0 0 94.4 269.79 A1.97986 1.97986 -180 0 0 98.36 269.79" class="st13"/>
			<path d="M3.96 267.81 L3.96 271.77 L0 269.79 L3.96 267.81" class="st13"/>
			<path d="M94.4 269.79 L3.96 269.79" class="st13"/>
		</g>
		<g id="shape39-67" v:mID="39" v:groupContext="shape" v:layerMember="0" transform="translate(39.935,-28.5965)">
			<title>Dynamic connector.39</title>
			<v:userDefs>
				<v:ud v:nameU="visVersion" v:prompt="" v:val="VT0(15):26"/>
			</v:userDefs>
			<path d="M0 269.79 L0 92.63 L291.6 92.63" class="st8"/>
		</g>
		<g id="shape40-72" v:mID="40" v:groupContext="shape" transform="translate(43.6247,-54.1083)">
			<title>Rectangle</title>
			<desc>Length</desc>
			<v:userDefs>
				<v:ud v:nameU="visVersion" v:val="VT0(15):26"/>
			</v:userDefs>
			<v:textBlock v:margins="rect(4,4,4,4)" v:tabSpace="42.5197"/>
			<v:textRect cx="17.9977" cy="259.87" width="36" height="19.8425"/>
			<rect x="0" y="249.949" width="35.9954" height="19.8425" class="st14"/>
			<text x="4.13" y="262.87" class="st7" v:langID="1033"><v:paragraph v:horizAlign="1"/><v:tabList/>Length</text>		</g>
		<g id="shape41-75" v:mID="41" v:groupContext="shape" transform="translate(0.25,-0.25)">
			<title>Rectangle.41</title>
			<desc>Base Address</desc>
			<v:userDefs>
				<v:ud v:nameU="visVersion" v:val="VT0(15):26"/>
			</v:userDefs>
			<v:textBlock v:margins="rect(4,4,4,4)" v:tabSpace="42.5197"/>
			<v:textRect cx="39.685" cy="255.618" width="79.38" height="28.3465"/>
			<rect x="0" y="241.445" width="79.3701" height="28.3465" class="st14"/>
			<text x="12.71" y="258.62" class="st7" v:langID="1033"><v:paragraph v:horizAlign="1"/><v:tabList/>Base Address</text>		</g>
		<g id="shape42-78" v:mID="42" v:groupContext="shape" v:layerMember="0" transform="translate(61.6224,-73.9508)">
			<title>Dynamic connector.42</title>
			<v:userDefs>
				<v:ud v:nameU="visVersion" v:prompt="" v:val="VT0(15):26"/>
			</v:userDefs>
			<path d="M0 269.79 L0 152.15 L269.91 152.15" class="st8"/>
		</g>
		<g id="shape43-83" v:mID="43" v:groupContext="shape" transform="translate(337.573,-229.856)">
			<title>Rectangle.43</title>
			<desc>Secure Boot Image Certificate (SBIC)</desc>
			<v:userDefs>
				<v:ud v:nameU="visVersion" v:val="VT0(15):26"/>
			</v:userDefs>
			<v:textBlock v:margins="rect(4,4,4,4)" v:tabSpace="42.5197"/>
			<v:textRect cx="42.5197" cy="249.949" width="85.04" height="39.685"/>
			<rect x="0" y="230.106" width="85.0394" height="39.685" class="st14"/>
			<text x="4.59" y="240.95" class="st15" v:langID="1033"><v:paragraph v:horizAlign="1"/><v:tabList/>Secure Boot Image <tspan
						x="21.6" dy="1.2em" class="st5">Certificate<v:newlineChar/></tspan><tspan x="30.64" dy="1.2em" class="st5">(SBIC)</tspan></text>		</g>
		<g id="shape45-88" v:mID="45" v:groupContext="shape" transform="translate(99.4626,-122.14)">
			<title>Rectangle.45</title>
			<desc>User Boot Loader executable stored in eNVM</desc>
			<v:userDefs>
				<v:ud v:nameU="visVersion" v:val="VT0(15):26"/>
			</v:userDefs>
			<v:textBlock v:margins="rect(4,4,4,4)" v:tabSpace="42.5197"/>
			<v:textRect cx="39.685" cy="255.618" width="79.38" height="28.3465"/>
			<rect x="0" y="241.445" width="79.3701" height="28.3465" class="st14"/>
			<text x="4.73" y="246.62" class="st15" v:langID="1033"><v:paragraph v:horizAlign="1"/><v:tabList/>User Boot Loader <tspan
						x="17.74" dy="1.2em" class="st5">executable </tspan><tspan x="8.12" dy="1.2em" class="st5">stored in eNVM</tspan></text>		</g>
		<g id="group47-93" transform="translate(593.636,-189.463)" v:mID="47" v:groupContext="group">
			<v:userDefs>
				<v:ud v:nameU="visVersion" v:prompt="" v:val="VT0(15):26"/>
			</v:userDefs>
			<title>Can</title>
			<desc>User Private Key</desc>
			<g id="shape48-94" v:mID="48" v:groupContext="shape">
				<title>Sheet.48</title>
				<v:userDefs>
					<v:ud v:nameU="ControlHalfHeight" v:prompt="" v:val="VT0(0.11811023622047):24"/>
					<v:ud v:nameU="FillForegnd" v:prompt="" v:val="VT0(1):26"/>
					<v:ud v:nameU="ControlHalfHeight" v:prompt="" v:val="VT0(0.064304458172852):1"/>
					<v:ud v:nameU="FillForegnd" v:prompt="" v:val="VT5(#f68d2e)"/>
				</v:userDefs>
				<g id="shadow48-95" v:groupContext="shadow" v:shadowOffsetX="0.345598" v:shadowOffsetY="-1.97279" v:shadowType="1"
						transform="matrix(1,0,0,1,0.345598,1.97279)" class="st1">
					<path d="M0 265.16 A23.1496 4.62992 -180 1 0 46.3 265.16 L46.3 228.12 L0 228.12 L0 265.16 Z" class="st2"/>
				</g>
				<path d="M0 265.16 A23.1496 4.62992 -180 1 0 46.3 265.16 L46.3 228.12 L0 228.12 L0 265.16 Z" class="st16"/>
			</g>
			<g id="shape47-99" v:mID="47" v:groupContext="groupContent">
				<v:textBlock v:margins="rect(4,4,4,4)" v:tabSpace="42.5197"/>
				<v:textRect cx="23.1496" cy="246.642" width="46.3" height="46.2992"/>
				<g id="shadow47-100" v:groupContext="shadow" v:shadowOffsetX="0.345598" v:shadowOffsetY="-1.97279" v:shadowType="1"
						transform="matrix(1,0,0,1,0.345598,1.97279)" class="st1">
					<ellipse cx="23.1496" cy="228.122" rx="23.1496" ry="4.62992" class="st2"/>
				</g>
				<ellipse cx="23.1496" cy="228.122" rx="23.1496" ry="4.62992" class="st16"/>
				<text x="15.63" y="244.24" class="st17" v:langID="1033"><v:paragraph v:horizAlign="1"/><v:tabList/>User <tspan
							x="4.94" dy="1.2em" class="st5">Private Key</tspan></text>			</g>
		</g>
		<g id="shape80-106" v:mID="80" v:groupContext="shape" v:layerMember="0" transform="translate(609.699,-189.463)">
			<title>Dynamic connector.80</title>
			<v:userDefs>
				<v:ud v:nameU="visVersion" v:prompt="" v:val="VT0(15):26"/>
			</v:userDefs>
			<path d="M7.09 269.79 L7.09 289.97" class="st8"/>
		</g>
		<g id="shape82-111" v:mID="82" v:groupContext="shape" v:layerMember="0" transform="translate(687.652,-161.589)">
			<title>Dynamic connector.82</title>
			<v:userDefs>
				<v:ud v:nameU="visVersion" v:prompt="" v:val="VT0(15):26"/>
			</v:userDefs>
			<path d="M0 269.79 L0 296.48 L-22.31 296.48" class="st8"/>
		</g>
		<g id="shape83-116" v:mID="83" v:groupContext="shape" transform="translate(659.305,-161.589)">
			<title>Rectangle.83</title>
			<desc>Random Number</desc>
			<v:userDefs>
				<v:ud v:nameU="visVersion" v:val="VT0(15):26"/>
			</v:userDefs>
			<v:textBlock v:margins="rect(4,4,4,4)" v:tabSpace="42.5197"/>
			<v:textRect cx="28.3465" cy="259.87" width="56.7" height="19.8425"/>
			<rect x="0" y="249.949" width="56.6929" height="19.8425" class="st18"/>
			<text x="14.75" y="257.47" class="st17" v:langID="1033"><v:paragraph v:horizAlign="1"/><v:tabList/>Random<v:newlineChar/><tspan
						x="14.98" dy="1.2em" class="st5">Number</tspan></text>		</g>
		<g id="group97-120" transform="translate(337.573,-42.7697)" v:mID="97" v:groupContext="group">
			<title>Sheet.97</title>
			<g id="shape85-121" v:mID="85" v:groupContext="shape" transform="translate(1.43885E-13,-155.906)">
				<title>Rectangle.85</title>
				<desc>Image Address</desc>
				<v:userDefs>
					<v:ud v:nameU="visVersion" v:val="VT0(15):26"/>
				</v:userDefs>
				<v:textBlock v:margins="rect(4,4,4,4)" v:tabSpace="42.5197"/>
				<v:textRect cx="42.5197" cy="262.705" width="85.04" height="14.1732"/>
				<g id="shadow85-122" v:groupContext="shadow" v:shadowOffsetX="0.345598" v:shadowOffsetY="-1.97279" v:shadowType="1"
						transform="matrix(1,0,0,1,0.345598,1.97279)" class="st1">
					<rect x="0" y="255.618" width="85.0394" height="14.1732" class="st2"/>
				</g>
				<rect x="0" y="255.618" width="85.0394" height="14.1732" class="st6"/>
				<text x="12.61" y="265.7" class="st7" v:langID="1033"><v:paragraph v:horizAlign="1"/><v:tabList/>Image Address</text>			</g>
			<g id="shape86-127" v:mID="86" v:groupContext="shape" transform="translate(1.43885E-13,-141.732)">
				<title>Rectangle.7</title>
				<desc>Image Length</desc>
				<v:userDefs>
					<v:ud v:nameU="visVersion" v:val="VT0(15):26"/>
				</v:userDefs>
				<v:textBlock v:margins="rect(4,4,4,4)" v:tabSpace="42.5197"/>
				<v:textRect cx="42.5197" cy="262.705" width="85.04" height="14.1732"/>
				<g id="shadow86-128" v:groupContext="shadow" v:shadowOffsetX="0.345598" v:shadowOffsetY="-1.97279" v:shadowType="1"
						transform="matrix(1,0,0,1,0.345598,1.97279)" class="st1">
					<rect x="0" y="255.618" width="85.0394" height="14.1732" class="st2"/>
				</g>
				<rect x="0" y="255.618" width="85.0394" height="14.1732" class="st6"/>
				<text x="15.03" y="265.7" class="st7" v:langID="1033"><v:paragraph v:horizAlign="1"/><v:tabList/>Image Length</text>			</g>
			<g id="shape87-133" v:mID="87" v:groupContext="shape" transform="translate(1.43885E-13,-14.1732)">
				<title>Rectangle.8</title>
				<desc>Executable’s Hash</desc>
				<v:userDefs>
					<v:ud v:nameU="visVersion" v:val="VT0(15):26"/>
				</v:userDefs>
				<v:textBlock v:margins="rect(4,4,4,4)" v:tabSpace="42.5197"/>
				<v:textRect cx="42.5197" cy="262.705" width="85.04" height="14.1732"/>
				<g id="shadow87-134" v:groupContext="shadow" v:shadowOffsetX="0.345598" v:shadowOffsetY="-1.97279" v:shadowType="1"
						transform="matrix(1,0,0,1,0.345598,1.97279)" class="st1">
					<rect x="0" y="255.618" width="85.0394" height="14.1732" class="st2"/>
				</g>
				<rect x="0" y="255.618" width="85.0394" height="14.1732" class="st6"/>
				<text x="5.93" y="265.7" class="st7" v:langID="1033"><v:paragraph v:horizAlign="1"/><v:tabList/>Executable’s Hash</text>			</g>
			<g id="shape88-139" v:mID="88" v:groupContext="shape">
				<title>Rectangle.88</title>
				<desc>Signature(r,s)</desc>
				<v:userDefs>
					<v:ud v:nameU="visVersion" v:val="VT0(15):26"/>
				</v:userDefs>
				<v:textBlock v:margins="rect(4,4,4,4)" v:tabSpace="42.5197"/>
				<v:textRect cx="42.5197" cy="262.705" width="85.04" height="14.1732"/>
				<g id="shadow88-140" v:groupContext="shadow" v:shadowOffsetX="0.345598" v:shadowOffsetY="-1.97279" v:shadowType="1"
						transform="matrix(1,0,0,1,0.345598,1.97279)" class="st1">
					<rect x="0" y="255.618" width="85.0394" height="14.1732" class="st2"/>
				</g>
				<rect x="0" y="255.618" width="85.0394" height="14.1732" class="st6"/>
				<text x="15.19" y="265.7" class="st7" v:langID="1033"><v:paragraph v:horizAlign="1"/><v:tabList/>Signature(r,s)</text>			</g>
			<g id="shape89-145" v:mID="89" v:groupContext="shape" transform="translate(1.43885E-13,-127.559)">
				<title>Rectangle.10</title>
				<desc>E51 boot vector</desc>
				<v:userDefs>
					<v:ud v:nameU="visVersion" v:val="VT0(15):26"/>
				</v:userDefs>
				<v:textBlock v:margins="rect(4,4,4,4)" v:tabSpace="42.5197"/>
				<v:textRect cx="42.5197" cy="262.705" width="85.04" height="14.1732"/>
				<g id="shadow89-146" v:groupContext="shadow" v:shadowOffsetX="0.345598" v:shadowOffsetY="-1.97279" v:shadowType="1"
						transform="matrix(1,0,0,1,0.345598,1.97279)" class="st1">
					<rect x="0" y="255.618" width="85.0394" height="14.1732" class="st2"/>
				</g>
				<rect x="0" y="255.618" width="85.0394" height="14.1732" class="st6"/>
				<text x="10.26" y="265.7" class="st7" v:langID="1033"><v:paragraph v:horizAlign="1"/><v:tabList/>E51 boot vector</text>			</g>
			<g id="shape90-151" v:mID="90" v:groupContext="shape" transform="translate(1.43885E-13,-113.386)">
				<title>Rectangle.11</title>
				<desc>U541 boot vector</desc>
				<v:userDefs>
					<v:ud v:nameU="visVersion" v:val="VT0(15):26"/>
				</v:userDefs>
				<v:textBlock v:margins="rect(4,4,4,4)" v:tabSpace="42.5197"/>
				<v:textRect cx="42.5197" cy="262.705" width="85.04" height="14.1732"/>
				<g id="shadow90-152" v:groupContext="shadow" v:shadowOffsetX="0.345598" v:shadowOffsetY="-1.97279" v:shadowType="1"
						transform="matrix(1,0,0,1,0.345598,1.97279)" class="st1">
					<rect x="0" y="255.618" width="85.0394" height="14.1732" class="st2"/>
				</g>
				<rect x="0" y="255.618" width="85.0394" height="14.1732" class="st6"/>
				<text x="7.85" y="265.7" class="st7" v:langID="1033"><v:paragraph v:horizAlign="1"/><v:tabList/>U54<tspan
							dy="-0.284em" class="st19" v:baseFontSize="10">1</tspan><tspan dy="0.185em" class="st5"> </tspan>boot vector</text>			</g>
			<g id="shape91-159" v:mID="91" v:groupContext="shape" transform="translate(1.43885E-13,-99.2127)">
				<title>Rectangle.12</title>
				<desc>U542 boot vector</desc>
				<v:userDefs>
					<v:ud v:nameU="visVersion" v:val="VT0(15):26"/>
				</v:userDefs>
				<v:textBlock v:margins="rect(4,4,4,4)" v:tabSpace="42.5197"/>
				<v:textRect cx="42.5197" cy="262.705" width="85.04" height="14.1732"/>
				<g id="shadow91-160" v:groupContext="shadow" v:shadowOffsetX="0.345598" v:shadowOffsetY="-1.97279" v:shadowType="1"
						transform="matrix(1,0,0,1,0.345598,1.97279)" class="st1">
					<rect x="0" y="255.618" width="85.0394" height="14.1732" class="st2"/>
				</g>
				<rect x="0" y="255.618" width="85.0394" height="14.1732" class="st6"/>
				<text x="7.85" y="265.7" class="st7" v:langID="1033"><v:paragraph v:horizAlign="1"/><v:tabList/>U54<tspan
							dy="-0.284em" class="st19" v:baseFontSize="10">2</tspan><tspan dy="0.185em" class="st5"> </tspan>boot vector</text>			</g>
			<g id="shape92-167" v:mID="92" v:groupContext="shape" transform="translate(1.43885E-13,-85.0394)">
				<title>Rectangle.15</title>
				<desc>U543 boot vector</desc>
				<v:userDefs>
					<v:ud v:nameU="visVersion" v:val="VT0(15):26"/>
				</v:userDefs>
				<v:textBlock v:margins="rect(4,4,4,4)" v:tabSpace="42.5197"/>
				<v:textRect cx="42.5197" cy="262.705" width="85.04" height="14.1732"/>
				<g id="shadow92-168" v:groupContext="shadow" v:shadowOffsetX="0.345598" v:shadowOffsetY="-1.97279" v:shadowType="1"
						transform="matrix(1,0,0,1,0.345598,1.97279)" class="st1">
					<rect x="0" y="255.618" width="85.0394" height="14.1732" class="st2"/>
				</g>
				<rect x="0" y="255.618" width="85.0394" height="14.1732" class="st6"/>
				<text x="7.85" y="265.7" class="st7" v:langID="1033"><v:paragraph v:horizAlign="1"/><v:tabList/>U54<tspan
							dy="-0.284em" class="st19" v:baseFontSize="10">3</tspan><tspan dy="0.185em" class="st5"> </tspan>boot vector</text>			</g>
			<g id="shape93-175" v:mID="93" v:groupContext="shape" transform="translate(1.43885E-13,-70.8662)">
				<title>Rectangle.16</title>
				<desc>U544 boot vector</desc>
				<v:userDefs>
					<v:ud v:nameU="visVersion" v:val="VT0(15):26"/>
				</v:userDefs>
				<v:textBlock v:margins="rect(4,4,4,4)" v:tabSpace="42.5197"/>
				<v:textRect cx="42.5197" cy="262.705" width="85.04" height="14.1732"/>
				<g id="shadow93-176" v:groupContext="shadow" v:shadowOffsetX="0.345598" v:shadowOffsetY="-1.97279" v:shadowType="1"
						transform="matrix(1,0,0,1,0.345598,1.97279)" class="st1">
					<rect x="0" y="255.618" width="85.0394" height="14.1732" class="st2"/>
				</g>
				<rect x="0" y="255.618" width="85.0394" height="14.1732" class="st6"/>
				<text x="7.85" y="265.7" class="st7" v:langID="1033"><v:paragraph v:horizAlign="1"/><v:tabList/>U54<tspan
							dy="-0.284em" class="st19" v:baseFontSize="10">4</tspan><tspan dy="0.185em" class="st5"> </tspan>boot vector</text>			</g>
			<g id="shape94-183" v:mID="94" v:groupContext="shape" transform="translate(1.59872E-14,-56.693)">
				<title>Rectangle.94</title>
				<desc>Options</desc>
				<v:userDefs>
					<v:ud v:nameU="visVersion" v:val="VT0(15):26"/>
				</v:userDefs>
				<v:textBlock v:margins="rect(4,4,4,4)" v:tabSpace="42.5197"/>
				<v:textRect cx="42.5197" cy="262.705" width="85.04" height="14.1732"/>
				<g id="shadow94-184" v:groupContext="shadow" v:shadowOffsetX="0.345598" v:shadowOffsetY="-1.97279" v:shadowType="1"
						transform="matrix(1,0,0,1,0.345598,1.97279)" class="st1">
					<rect x="0" y="255.618" width="85.0394" height="14.1732" class="st2"/>
				</g>
				<rect x="0" y="255.618" width="85.0394" height="14.1732" class="st6"/>
				<text x="26.54" y="265.7" class="st7" v:langID="1033"><v:paragraph v:horizAlign="1"/><v:tabList/>Options</text>			</g>
			<g id="shape95-189" v:mID="95" v:groupContext="shape" transform="translate(2.79776E-13,-42.5197)">
				<title>Rectangle.95</title>
				<desc>Version</desc>
				<v:userDefs>
					<v:ud v:nameU="visVersion" v:val="VT0(15):26"/>
				</v:userDefs>
				<v:textBlock v:margins="rect(4,4,4,4)" v:tabSpace="42.5197"/>
				<v:textRect cx="42.5197" cy="262.705" width="85.04" height="14.1732"/>
				<g id="shadow95-190" v:groupContext="shadow" v:shadowOffsetX="0.345598" v:shadowOffsetY="-1.97279" v:shadowType="1"
						transform="matrix(1,0,0,1,0.345598,1.97279)" class="st1">
					<rect x="0" y="255.618" width="85.0394" height="14.1732" class="st2"/>
				</g>
				<rect x="0" y="255.618" width="85.0394" height="14.1732" class="st6"/>
				<text x="27.09" y="265.7" class="st7" v:langID="1033"><v:paragraph v:horizAlign="1"/><v:tabList/>Version</text>			</g>
			<g id="shape96-195" v:mID="96" v:groupContext="shape" transform="translate(1.59872E-14,-28.3465)">
				<title>Rectangle.96</title>
				<desc>DSN</desc>
				<v:userDefs>
					<v:ud v:nameU="visVersion" v:val="VT0(15):26"/>
				</v:userDefs>
				<v:textBlock v:margins="rect(4,4,4,4)" v:tabSpace="42.5197"/>
				<v:textRect cx="42.5197" cy="262.705" width="85.04" height="14.1732"/>
				<g id="shadow96-196" v:groupContext="shadow" v:shadowOffsetX="0.345598" v:shadowOffsetY="-1.97279" v:shadowType="1"
						transform="matrix(1,0,0,1,0.345598,1.97279)" class="st1">
					<rect x="0" y="255.618" width="85.0394" height="14.1732" class="st2"/>
				</g>
				<rect x="0" y="255.618" width="85.0394" height="14.1732" class="st6"/>
				<text x="33.92" y="265.7" class="st7" v:langID="1033"><v:paragraph v:horizAlign="1"/><v:tabList/>DSN</text>			</g>
		</g>
		<g id="shape98-201" v:mID="98" v:groupContext="shape" transform="translate(465.132,-106.549)">
			<title>Ellipse.97</title>
			<desc>Generate SHA-384 Hash</desc>
			<v:userDefs>
				<v:ud v:nameU="visVersion" v:val="VT0(15):26"/>
			</v:userDefs>
			<v:textBlock v:margins="rect(4,4,4,4)" v:tabSpace="42.5197"/>
			<v:textRect cx="42.5197" cy="241.445" width="74.41" height="49.6063"/>
			<g id="shadow98-202" v:groupContext="shadow" v:shadowOffsetX="0.345598" v:shadowOffsetY="-1.97279" v:shadowType="1"
					transform="matrix(1,0,0,1,0.345598,1.97279)" class="st1">
				<path d="M0 241.44 A42.5197 28.3465 0 0 1 85.04 241.44 A42.5197 28.3465 0 0 1 -0 241.44 Z" class="st2"/>
			</g>
			<path d="M0 241.44 A42.5197 28.3465 0 0 1 85.04 241.44 A42.5197 28.3465 0 0 1 -0 241.44 Z" class="st3"/>
			<text x="23.46" y="232.45" class="st4" v:langID="1033"><v:paragraph v:horizAlign="1"/><v:tabList/>Generate<v:newlineChar/><tspan
						x="25.08" dy="1.2em" class="st5">SHA</tspan>-384<v:newlineChar/><tspan x="32.43" dy="1.2em" class="st5">Hash</tspan></text>		</g>
		<g id="shape99-209" v:mID="99" v:groupContext="shape" v:layerMember="0" transform="translate(550.171,-127.809)">
			<title>Dynamic connector.99</title>
			<v:userDefs>
				<v:ud v:nameU="visVersion" v:prompt="" v:val="VT0(15):26"/>
			</v:userDefs>
			<path d="M0 262.7 L18.05 262.7" class="st8"/>
		</g>
		<g id="shape100-214" v:mID="100" v:groupContext="shape" transform="translate(553.006,-134.896)">
			<title>Sheet.100</title>
			<desc>z</desc>
			<v:textBlock v:margins="rect(4,4,4,4)" v:tabSpace="42.5197"/>
			<v:textRect cx="7.08661" cy="262.705" width="14.18" height="14.1732"/>
			<rect x="0" y="255.618" width="14.1732" height="14.1732" class="st20"/>
			<text x="5.11" y="265.7" class="st7" v:langID="1033"><v:paragraph v:horizAlign="1"/><v:tabList/>z</text>		</g>
		<g id="shape101-217" v:mID="101" v:groupContext="shape" transform="translate(613.951,-169.266)">
			<title>Sheet.101</title>
			<desc>d</desc>
			<v:textBlock v:margins="rect(4,4,4,4)" v:tabSpace="42.5197"/>
			<v:textRect cx="7.08661" cy="262.705" width="14.18" height="14.1732"/>
			<rect x="0" y="255.618" width="14.1732" height="14.1732" class="st20"/>
			<text x="4.46" y="265.7" class="st7" v:langID="1033"><v:paragraph v:horizAlign="1"/><v:tabList/>d</text>		</g>
		<g id="shape102-220" v:mID="102" v:groupContext="shape" transform="translate(616.077,-86.3524)">
			<title>Sheet.102</title>
			<desc>r, s</desc>
			<v:textBlock v:margins="rect(4,4,4,4)" v:tabSpace="42.5197"/>
			<v:textRect cx="12.0472" cy="262.705" width="24.1" height="14.1732"/>
			<rect x="0" y="255.618" width="24.0945" height="14.1732" class="st20"/>
			<text x="5.97" y="265.7" class="st7" v:langID="1033"><v:paragraph v:horizAlign="1"/><v:tabList/>r, s</text>		</g>
		<g id="shape103-223" v:mID="103" v:groupContext="shape" transform="translate(666.392,-134.896)">
			<title>Sheet.103</title>
			<desc>k</desc>
			<v:textBlock v:margins="rect(4,4,4,4)" v:tabSpace="42.5197"/>
			<v:textRect cx="7.08661" cy="262.705" width="14.18" height="14.1732"/>
			<rect x="0" y="255.618" width="14.1732" height="14.1732" class="st20"/>
			<text x="4.81" y="265.7" class="st7" v:langID="1033"><v:paragraph v:horizAlign="1"/><v:tabList/>k</text>		</g>
	</g>
</svg>
