<?xml version="1.0" encoding="UTF-8" standalone="no"?>
<!DOCTYPE svg PUBLIC "-//W3C//DTD SVG 1.1//EN" "http://www.w3.org/Graphics/SVG/1.1/DTD/svg11.dtd">
<!-- Generated by Microsoft Visio, SVG Export Secure-Boot-Mode-3-ECDSA-Overview.svg Page-1 -->
<svg xmlns="http://www.w3.org/2000/svg" xmlns:xlink="http://www.w3.org/1999/xlink" xmlns:ev="http://www.w3.org/2001/xml-events"
		xmlns:v="http://schemas.microsoft.com/visio/2003/SVGExtensions/" width="7.17828in" height="4.08657in"
		viewBox="0 0 516.836 294.233" xml:space="preserve" color-interpolation-filters="sRGB" class="st21">
	<v:documentProperties v:langID="1033" v:metric="true" v:viewMarkup="false"/>

	<style type="text/css">
	<![CDATA[
		.st1 {visibility:visible}
		.st2 {fill:#5b9bd5;fill-opacity:0.22;filter:url(#filter_2);stroke:#5b9bd5;stroke-opacity:0.22}
		.st3 {fill:#fbdb65;fill-opacity:0.2;stroke:#fbdb65;stroke-width:0.25}
		.st4 {fill:#6cc24a;stroke:#c7c8c8;stroke-width:0.25}
		.st5 {fill:#feffff;font-family:Calibri;font-size:0.833336em}
		.st6 {font-size:1em}
		.st7 {fill:#949b90;fill-opacity:0.5;stroke:#d1dde6;stroke-width:0.25}
		.st8 {fill:#000000;font-family:Calibri;font-size:0.666664em}
		.st9 {fill:#f68d2e;stroke:#d1dde6;stroke-width:0.25}
		.st10 {font-size:1em;font-style:italic}
		.st11 {fill:#949b90;stroke:#d1dde6;stroke-width:0.25}
		.st12 {marker-end:url(#mrkr4-40);stroke:#000000;stroke-dasharray:3.5,2.5;stroke-linecap:round;stroke-linejoin:round;stroke-width:0.5}
		.st13 {fill:#000000;fill-opacity:1;stroke:#000000;stroke-opacity:1;stroke-width:0.16556291390728}
		.st14 {marker-end:url(#mrkr4-51);stroke:#000000;stroke-linecap:round;stroke-linejoin:round;stroke-width:1}
		.st15 {fill:#000000;fill-opacity:1;stroke:#000000;stroke-opacity:1;stroke-width:0.28409090909091}
		.st16 {fill:#000000;font-family:Calibri;font-size:0.666664em;font-style:italic}
		.st17 {fill:#d1dde6;stroke:#d1dde6;stroke-width:0.25}
		.st18 {marker-end:url(#mrkr4-107);stroke:#000000;stroke-linecap:round;stroke-linejoin:round;stroke-width:1}
		.st19 {fill:none;stroke:none;stroke-width:0.25}
		.st20 {fill:#000000;font-family:Calibri;font-size:0.833336em}
		.st21 {fill:none;fill-rule:evenodd;font-size:12px;overflow:visible;stroke-linecap:square;stroke-miterlimit:3}
	]]>
	</style>

	<defs id="Markers">
		<g id="lend4">
			<path d="M 2 1 L 0 0 L 2 -1 L 2 1 " style="stroke:none"/>
		</g>
		<marker id="mrkr4-40" class="st13" v:arrowType="4" v:arrowSize="2" v:setback="11.36" refX="-11.36" orient="auto"
				markerUnits="strokeWidth" overflow="visible">
			<use xlink:href="#lend4" transform="scale(-6.04,-6.04) "/>
		</marker>
		<marker id="mrkr4-51" class="st15" v:arrowType="4" v:arrowSize="2" v:setback="7.04" refX="-7.04" orient="auto"
				markerUnits="strokeWidth" overflow="visible">
			<use xlink:href="#lend4" transform="scale(-3.52,-3.52) "/>
		</marker>
		<marker id="mrkr4-107" class="st15" v:arrowType="4" v:arrowSize="2" v:setback="6.68" refX="-6.68" orient="auto"
				markerUnits="strokeWidth" overflow="visible">
			<use xlink:href="#lend4" transform="scale(-3.52,-3.52) "/>
		</marker>
	</defs>
	<defs id="Filters">
		<filter id="filter_2">
			<feGaussianBlur stdDeviation="2"/>
		</filter>
	</defs>
	<g v:mID="0" v:index="1" v:groupContext="foregroundPage">
		<title>Page-1</title>
		<v:pageProperties v:drawingScale="0.0393701" v:pageScale="0.0393701" v:drawingUnits="24" v:shadowOffsetX="8.50394"
				v:shadowOffsetY="-8.50394"/>
		<v:layer v:name="Connector" v:index="0"/>
		<g id="shape36-1" v:mID="36" v:groupContext="shape" transform="translate(201.379,-42.0881)">
			<title>Rounded Rectangle.36</title>
			<v:userDefs>
				<v:ud v:nameU="CTypeTopLeftSnip" v:prompt="" v:val="VT0(0):5"/>
				<v:ud v:nameU="CTypeTopRightSnip" v:prompt="" v:val="VT0(0):5"/>
				<v:ud v:nameU="CTypeBotLeftSnip" v:prompt="" v:val="VT0(0):5"/>
				<v:ud v:nameU="CTypeBotRightSnip" v:prompt="" v:val="VT0(0):5"/>
				<v:ud v:nameU="CornerLockHoriz" v:prompt="" v:val="VT0(1):5"/>
				<v:ud v:nameU="CornerLockVert" v:prompt="" v:val="VT0(1):5"/>
				<v:ud v:nameU="CornerLockDiag" v:prompt="" v:val="VT0(0):5"/>
				<v:ud v:nameU="TopLeftOffset" v:prompt="" v:val="VT0(0.15748031496063):24"/>
				<v:ud v:nameU="TopRightOffset" v:prompt="" v:val="VT0(0.15748031496063):24"/>
				<v:ud v:nameU="BotLeftOffset" v:prompt="" v:val="VT0(0.15748031496063):24"/>
				<v:ud v:nameU="BotRightOffset" v:prompt="" v:val="VT0(0.15748031496063):24"/>
				<v:ud v:nameU="visVersion" v:prompt="" v:val="VT0(15):26"/>
				<v:ud v:nameU="TopLeftOffset" v:prompt="" v:val="VT0(0.11811023245107):1"/>
				<v:ud v:nameU="TopRightOffset" v:prompt="" v:val="VT0(0.11811023245107):1"/>
				<v:ud v:nameU="BotLeftOffset" v:prompt="" v:val="VT0(0.11811023245107):1"/>
				<v:ud v:nameU="BotRightOffset" v:prompt="" v:val="VT0(0.11811023245107):1"/>
			</v:userDefs>
			<g id="shadow36-2" v:groupContext="shadow" v:shadowOffsetX="0.345598" v:shadowOffsetY="-1.97279" v:shadowType="1"
					transform="matrix(1,0,0,1,0.345598,1.97279)" class="st1">
				<path d="M8.5 294.23 L76.54 294.23 A8.5038 8.5038 -180 0 0 85.04 285.73 L85.04 118.48 A8.5038 8.5038 -180 0 0 76.54
							 109.98 L8.5 109.98 A8.5038 8.5038 -180 0 0 0 118.48 L0 285.73 A8.5038 8.5038 -180 0 0 8.5 294.23 Z"
						class="st2"/>
			</g>
			<path d="M8.5 294.23 L76.54 294.23 A8.5038 8.5038 -180 0 0 85.04 285.73 L85.04 118.48 A8.5038 8.5038 -180 0 0 76.54 109.98
						 L8.5 109.98 A8.5038 8.5038 -180 0 0 0 118.48 L0 285.73 A8.5038 8.5038 -180 0 0 8.5 294.23 Z" class="st3"/>
		</g>
		<g id="shape1-6" v:mID="1" v:groupContext="shape" transform="translate(87.9937,-183.82)">
			<title>Ellipse</title>
			<desc>Key Pair Generation</desc>
			<v:userDefs>
				<v:ud v:nameU="visVersion" v:val="VT0(15):26"/>
			</v:userDefs>
			<v:textBlock v:margins="rect(4,4,4,4)" v:tabSpace="42.5197"/>
			<v:textRect cx="42.5197" cy="265.887" width="74.41" height="49.6063"/>
			<g id="shadow1-7" v:groupContext="shadow" v:shadowOffsetX="0.345598" v:shadowOffsetY="-1.97279" v:shadowType="1"
					transform="matrix(1,0,0,1,0.345598,1.97279)" class="st1">
				<path d="M0 265.89 A42.5197 28.3465 0 0 1 85.04 265.89 A42.5197 28.3465 0 0 1 -0 265.89 Z" class="st2"/>
			</g>
			<path d="M0 265.89 A42.5197 28.3465 0 0 1 85.04 265.89 A42.5197 28.3465 0 0 1 -0 265.89 Z" class="st4"/>
			<text x="26.17" y="262.89" class="st5" v:langID="1033"><v:paragraph v:horizAlign="1"/><v:tabList/>Key Pair <tspan
						x="19.54" dy="1.2em" class="st6">Generation</tspan></text>		</g>
		<g id="shape5-13" v:mID="5" v:groupContext="shape" transform="translate(2.95431,-127.128)">
			<title>Rounded Rectangle</title>
			<desc>Elliptic Curve &#38; Base Point</desc>
			<v:userDefs>
				<v:ud v:nameU="CTypeTopLeftSnip" v:prompt="" v:val="VT0(0):5"/>
				<v:ud v:nameU="CTypeTopRightSnip" v:prompt="" v:val="VT0(0):5"/>
				<v:ud v:nameU="CTypeBotLeftSnip" v:prompt="" v:val="VT0(0):5"/>
				<v:ud v:nameU="CTypeBotRightSnip" v:prompt="" v:val="VT0(0):5"/>
				<v:ud v:nameU="CornerLockHoriz" v:prompt="" v:val="VT0(1):5"/>
				<v:ud v:nameU="CornerLockVert" v:prompt="" v:val="VT0(1):5"/>
				<v:ud v:nameU="CornerLockDiag" v:prompt="" v:val="VT0(0):5"/>
				<v:ud v:nameU="TopLeftOffset" v:prompt="" v:val="VT0(0.15748031496063):24"/>
				<v:ud v:nameU="TopRightOffset" v:prompt="" v:val="VT0(0.15748031496063):24"/>
				<v:ud v:nameU="BotLeftOffset" v:prompt="" v:val="VT0(0.15748031496063):24"/>
				<v:ud v:nameU="BotRightOffset" v:prompt="" v:val="VT0(0.15748031496063):24"/>
				<v:ud v:nameU="visVersion" v:prompt="" v:val="VT0(15):26"/>
				<v:ud v:nameU="TopLeftOffset" v:prompt="" v:val="VT0(0.078740154967378):1"/>
				<v:ud v:nameU="TopRightOffset" v:prompt="" v:val="VT0(0.078740154967378):1"/>
				<v:ud v:nameU="BotLeftOffset" v:prompt="" v:val="VT0(0.078740154967378):1"/>
				<v:ud v:nameU="BotRightOffset" v:prompt="" v:val="VT0(0.078740154967378):1"/>
			</v:userDefs>
			<v:textBlock v:margins="rect(4,4,4,4)" v:tabSpace="42.5197"/>
			<v:textRect cx="28.3465" cy="272.973" width="56.7" height="42.5197"/>
			<g id="shadow5-14" v:groupContext="shadow" v:shadowOffsetX="0.345598" v:shadowOffsetY="-1.97279" v:shadowType="1"
					transform="matrix(1,0,0,1,0.345598,1.97279)" class="st1">
				<path d="M5.67 294.23 L51.02 294.23 A5.6692 5.6692 -180 0 0 56.69 288.56 L56.69 257.38 A5.6692 5.6692 -180 0 0 51.02
							 251.71 L5.67 251.71 A5.6692 5.6692 -180 0 0 -0 257.38 L0 288.56 A5.6692 5.6692 -180 0 0 5.67 294.23
							 Z" class="st2"/>
			</g>
			<path d="M5.67 294.23 L51.02 294.23 A5.6692 5.6692 -180 0 0 56.69 288.56 L56.69 257.38 A5.6692 5.6692 -180 0 0 51.02
						 251.71 L5.67 251.71 A5.6692 5.6692 -180 0 0 -0 257.38 L0 288.56 A5.6692 5.6692 -180 0 0 5.67 294.23 Z"
					class="st7"/>
			<text x="7.26" y="265.77" class="st8" v:langID="1033"><v:paragraph v:horizAlign="1"/><v:tabList/>Elliptic Curve<v:newlineChar/><tspan
						x="25.62" dy="1.2em" class="st6">&#38;<v:newlineChar/></tspan><tspan x="11.26" dy="1.2em" class="st6">Base Point</tspan></text>		</g>
		<g id="shape8-21" v:mID="8" v:groupContext="shape" transform="translate(102.167,-141.301)">
			<title>Rounded Rectangle.8</title>
			<desc>Private Key (d)</desc>
			<v:userDefs>
				<v:ud v:nameU="CTypeTopLeftSnip" v:prompt="" v:val="VT0(0):5"/>
				<v:ud v:nameU="CTypeTopRightSnip" v:prompt="" v:val="VT0(0):5"/>
				<v:ud v:nameU="CTypeBotLeftSnip" v:prompt="" v:val="VT0(0):5"/>
				<v:ud v:nameU="CTypeBotRightSnip" v:prompt="" v:val="VT0(0):5"/>
				<v:ud v:nameU="CornerLockHoriz" v:prompt="" v:val="VT0(1):5"/>
				<v:ud v:nameU="CornerLockVert" v:prompt="" v:val="VT0(1):5"/>
				<v:ud v:nameU="CornerLockDiag" v:prompt="" v:val="VT0(0):5"/>
				<v:ud v:nameU="TopLeftOffset" v:prompt="" v:val="VT0(0.15748031496063):24"/>
				<v:ud v:nameU="TopRightOffset" v:prompt="" v:val="VT0(0.15748031496063):24"/>
				<v:ud v:nameU="BotLeftOffset" v:prompt="" v:val="VT0(0.15748031496063):24"/>
				<v:ud v:nameU="BotRightOffset" v:prompt="" v:val="VT0(0.15748031496063):24"/>
				<v:ud v:nameU="visVersion" v:prompt="" v:val="VT0(15):26"/>
				<v:ud v:nameU="TopLeftOffset" v:prompt="" v:val="VT0(0.078740154967378):1"/>
				<v:ud v:nameU="TopRightOffset" v:prompt="" v:val="VT0(0.078740154967378):1"/>
				<v:ud v:nameU="BotLeftOffset" v:prompt="" v:val="VT0(0.078740154967378):1"/>
				<v:ud v:nameU="BotRightOffset" v:prompt="" v:val="VT0(0.078740154967378):1"/>
			</v:userDefs>
			<v:textBlock v:margins="rect(4,4,4,4)" v:tabSpace="42.5197"/>
			<v:textRect cx="28.3465" cy="287.146" width="56.7" height="14.1732"/>
			<g id="shadow8-22" v:groupContext="shadow" v:shadowOffsetX="0.345598" v:shadowOffsetY="-1.97279" v:shadowType="1"
					transform="matrix(1,0,0,1,0.345598,1.97279)" class="st1">
				<path d="M5.67 294.23 L51.02 294.23 A5.6692 5.6692 -180 0 0 56.69 288.56 L56.69 285.73 A5.6692 5.6692 -180 0 0 51.02
							 280.06 L5.67 280.06 A5.6692 5.6692 -180 0 0 -0 285.73 L0 288.56 A5.6692 5.6692 -180 0 0 5.67 294.23
							 Z" class="st2"/>
			</g>
			<path d="M5.67 294.23 L51.02 294.23 A5.6692 5.6692 -180 0 0 56.69 288.56 L56.69 285.73 A5.6692 5.6692 -180 0 0 51.02
						 280.06 L5.67 280.06 A5.6692 5.6692 -180 0 0 -0 285.73 L0 288.56 A5.6692 5.6692 -180 0 0 5.67 294.23 Z"
					class="st9"/>
			<text x="4.74" y="289.55" class="st8" v:langID="1033"><v:paragraph v:horizAlign="1"/><v:tabList/>Private Key (<tspan
						class="st10">d</tspan>)</text>		</g>
		<g id="shape9-28" v:mID="9" v:groupContext="shape" transform="translate(215.553,-205.08)">
			<title>Rounded Rectangle.9</title>
			<desc>Public Key (Q)</desc>
			<v:userDefs>
				<v:ud v:nameU="CTypeTopLeftSnip" v:prompt="" v:val="VT0(0):5"/>
				<v:ud v:nameU="CTypeTopRightSnip" v:prompt="" v:val="VT0(0):5"/>
				<v:ud v:nameU="CTypeBotLeftSnip" v:prompt="" v:val="VT0(0):5"/>
				<v:ud v:nameU="CTypeBotRightSnip" v:prompt="" v:val="VT0(0):5"/>
				<v:ud v:nameU="CornerLockHoriz" v:prompt="" v:val="VT0(1):5"/>
				<v:ud v:nameU="CornerLockVert" v:prompt="" v:val="VT0(1):5"/>
				<v:ud v:nameU="CornerLockDiag" v:prompt="" v:val="VT0(0):5"/>
				<v:ud v:nameU="TopLeftOffset" v:prompt="" v:val="VT0(0.15748031496063):24"/>
				<v:ud v:nameU="TopRightOffset" v:prompt="" v:val="VT0(0.15748031496063):24"/>
				<v:ud v:nameU="BotLeftOffset" v:prompt="" v:val="VT0(0.15748031496063):24"/>
				<v:ud v:nameU="BotRightOffset" v:prompt="" v:val="VT0(0.15748031496063):24"/>
				<v:ud v:nameU="visVersion" v:prompt="" v:val="VT0(15):26"/>
				<v:ud v:nameU="TopLeftOffset" v:prompt="" v:val="VT0(0.078740154967378):1"/>
				<v:ud v:nameU="TopRightOffset" v:prompt="" v:val="VT0(0.078740154967378):1"/>
				<v:ud v:nameU="BotLeftOffset" v:prompt="" v:val="VT0(0.078740154967378):1"/>
				<v:ud v:nameU="BotRightOffset" v:prompt="" v:val="VT0(0.078740154967378):1"/>
			</v:userDefs>
			<v:textBlock v:margins="rect(4,4,4,4)" v:tabSpace="42.5197"/>
			<v:textRect cx="28.3465" cy="287.146" width="56.7" height="14.1732"/>
			<g id="shadow9-29" v:groupContext="shadow" v:shadowOffsetX="0.345598" v:shadowOffsetY="-1.97279" v:shadowType="1"
					transform="matrix(1,0,0,1,0.345598,1.97279)" class="st1">
				<path d="M5.67 294.23 L51.02 294.23 A5.6692 5.6692 -180 0 0 56.69 288.56 L56.69 285.73 A5.6692 5.6692 -180 0 0 51.02
							 280.06 L5.67 280.06 A5.6692 5.6692 -180 0 0 -0 285.73 L0 288.56 A5.6692 5.6692 -180 0 0 5.67 294.23
							 Z" class="st2"/>
			</g>
			<path d="M5.67 294.23 L51.02 294.23 A5.6692 5.6692 -180 0 0 56.69 288.56 L56.69 285.73 A5.6692 5.6692 -180 0 0 51.02
						 280.06 L5.67 280.06 A5.6692 5.6692 -180 0 0 -0 285.73 L0 288.56 A5.6692 5.6692 -180 0 0 5.67 294.23 Z"
					class="st11"/>
			<text x="5.78" y="289.55" class="st8" v:langID="1033"><v:paragraph v:horizAlign="1"/><v:tabList/>Public Key (<tspan
						class="st10">Q</tspan>)</text>		</g>
		<g id="shape10-35" v:mID="10" v:groupContext="shape" v:layerMember="0"
				transform="translate(207.841,359.972) rotate(-36.8699) scale(1,-1)">
			<title>Line-arc connector</title>
			<v:userDefs>
				<v:ud v:nameU="Scale" v:val="VT0(1):26"/>
				<v:ud v:nameU="AntiScale" v:val="VT0(1):26"/>
				<v:ud v:nameU="visVersion" v:val="VT0(15):26"/>
			</v:userDefs>
			<path d="M0 294.23 A82.6303 82.6303 -180 0 0 65.32 296.62 L65.65 296.48" class="st12"/>
		</g>
		<g id="shape11-41" v:mID="11" v:groupContext="shape" v:layerMember="0" transform="translate(31.3008,418.819) scale(1,-1)">
			<title>Line-arc connector.11</title>
			<v:userDefs>
				<v:ud v:nameU="Scale" v:val="VT0(1):26"/>
				<v:ud v:nameU="AntiScale" v:val="VT0(1):26"/>
				<v:ud v:nameU="visVersion" v:val="VT0(15):26"/>
			</v:userDefs>
			<path d="M0 294.23 A195.011 195.011 -180 0 0 351.72 299.68 L351.88 299.36" class="st12"/>
		</g>
		<g id="shape12-46" v:mID="12" v:groupContext="shape" v:layerMember="0" transform="translate(173.033,-212.167)">
			<title>Line-arc connector.12</title>
			<v:userDefs>
				<v:ud v:nameU="Scale" v:val="VT0(1):26"/>
				<v:ud v:nameU="AntiScale" v:val="VT0(1):26"/>
				<v:ud v:nameU="visVersion" v:val="VT0(15):26"/>
			</v:userDefs>
			<path d="M0 294.23 L35.48 294.23" class="st14"/>
		</g>
		<g id="shape13-52" v:mID="13" v:groupContext="shape" v:layerMember="0"
				transform="translate(-163.72,110.413) rotate(-90) scale(-1,1)">
			<title>Line-arc connector.13</title>
			<v:userDefs>
				<v:ud v:nameU="Scale" v:val="VT0(1):26"/>
				<v:ud v:nameU="AntiScale" v:val="VT0(1):26"/>
				<v:ud v:nameU="visVersion" v:val="VT0(15):26"/>
			</v:userDefs>
			<path d="M0 294.23 L21.31 294.23" class="st14"/>
		</g>
		<g id="shape14-57" v:mID="14" v:groupContext="shape" transform="translate(87.9937,-56.2614)">
			<title>Ellipse.14</title>
			<desc>Signature Generation</desc>
			<v:userDefs>
				<v:ud v:nameU="visVersion" v:val="VT0(15):26"/>
			</v:userDefs>
			<v:textBlock v:margins="rect(4,4,4,4)" v:tabSpace="42.5197"/>
			<v:textRect cx="42.5197" cy="265.887" width="74.41" height="49.6063"/>
			<g id="shadow14-58" v:groupContext="shadow" v:shadowOffsetX="0.345598" v:shadowOffsetY="-1.97279" v:shadowType="1"
					transform="matrix(1,0,0,1,0.345598,1.97279)" class="st1">
				<path d="M0 265.89 A42.5197 28.3465 0 0 1 85.04 265.89 A42.5197 28.3465 0 0 1 -0 265.89 Z" class="st2"/>
			</g>
			<path d="M0 265.89 A42.5197 28.3465 0 0 1 85.04 265.89 A42.5197 28.3465 0 0 1 -0 265.89 Z" class="st4"/>
			<text x="23.17" y="262.89" class="st5" v:langID="1033"><v:paragraph v:horizAlign="1"/><v:tabList/>Signature <tspan
						x="19.54" dy="1.2em" class="st6">Generation</tspan></text>		</g>
		<g id="shape17-64" v:mID="17" v:groupContext="shape" v:layerMember="0"
				transform="translate(-163.72,152.932) rotate(-90) scale(-1,1)">
			<title>Line-arc connector.17</title>
			<v:userDefs>
				<v:ud v:nameU="Scale" v:val="VT0(1):26"/>
				<v:ud v:nameU="AntiScale" v:val="VT0(1):26"/>
				<v:ud v:nameU="visVersion" v:val="VT0(15):26"/>
			</v:userDefs>
			<path d="M0 294.23 L21.31 294.23" class="st14"/>
		</g>
		<g id="shape19-69" v:mID="19" v:groupContext="shape" transform="translate(343.112,-112.954)">
			<title>Ellipse.19</title>
			<desc>Certificate Authentication</desc>
			<v:userDefs>
				<v:ud v:nameU="visVersion" v:val="VT0(15):26"/>
			</v:userDefs>
			<v:textBlock v:margins="rect(4,4,4,4)" v:tabSpace="42.5197"/>
			<v:textRect cx="42.5197" cy="265.887" width="74.41" height="49.6063"/>
			<g id="shadow19-70" v:groupContext="shadow" v:shadowOffsetX="0.345598" v:shadowOffsetY="-1.97279" v:shadowType="1"
					transform="matrix(1,0,0,1,0.345598,1.97279)" class="st1">
				<path d="M0 265.89 A42.5197 28.3465 0 0 1 85.04 265.89 A42.5197 28.3465 0 0 1 -0 265.89 Z" class="st2"/>
			</g>
			<path d="M0 265.89 A42.5197 28.3465 0 0 1 85.04 265.89 A42.5197 28.3465 0 0 1 -0 265.89 Z" class="st4"/>
			<text x="21.45" y="262.89" class="st5" v:langID="1033"><v:paragraph v:horizAlign="1"/><v:tabList/>Certificate <tspan
						x="12.17" dy="1.2em" class="st6">Authentication</tspan></text>		</g>
		<g id="shape21-76" v:mID="21" v:groupContext="shape" transform="translate(456.498,-134.214)">
			<title>Rounded Rectangle.21</title>
			<desc>r’</desc>
			<v:userDefs>
				<v:ud v:nameU="CTypeTopLeftSnip" v:prompt="" v:val="VT0(0):5"/>
				<v:ud v:nameU="CTypeTopRightSnip" v:prompt="" v:val="VT0(0):5"/>
				<v:ud v:nameU="CTypeBotLeftSnip" v:prompt="" v:val="VT0(0):5"/>
				<v:ud v:nameU="CTypeBotRightSnip" v:prompt="" v:val="VT0(0):5"/>
				<v:ud v:nameU="CornerLockHoriz" v:prompt="" v:val="VT0(1):5"/>
				<v:ud v:nameU="CornerLockVert" v:prompt="" v:val="VT0(1):5"/>
				<v:ud v:nameU="CornerLockDiag" v:prompt="" v:val="VT0(0):5"/>
				<v:ud v:nameU="TopLeftOffset" v:prompt="" v:val="VT0(0.15748031496063):24"/>
				<v:ud v:nameU="TopRightOffset" v:prompt="" v:val="VT0(0.15748031496063):24"/>
				<v:ud v:nameU="BotLeftOffset" v:prompt="" v:val="VT0(0.15748031496063):24"/>
				<v:ud v:nameU="BotRightOffset" v:prompt="" v:val="VT0(0.15748031496063):24"/>
				<v:ud v:nameU="visVersion" v:prompt="" v:val="VT0(15):26"/>
				<v:ud v:nameU="TopLeftOffset" v:prompt="" v:val="VT0(0.078740154967378):1"/>
				<v:ud v:nameU="TopRightOffset" v:prompt="" v:val="VT0(0.078740154967378):1"/>
				<v:ud v:nameU="BotLeftOffset" v:prompt="" v:val="VT0(0.078740154967378):1"/>
				<v:ud v:nameU="BotRightOffset" v:prompt="" v:val="VT0(0.078740154967378):1"/>
			</v:userDefs>
			<v:textBlock v:margins="rect(4,4,4,4)" v:tabSpace="42.5197"/>
			<v:textRect cx="28.3465" cy="287.146" width="56.7" height="14.1732"/>
			<g id="shadow21-77" v:groupContext="shadow" v:shadowOffsetX="0.345598" v:shadowOffsetY="-1.97279" v:shadowType="1"
					transform="matrix(1,0,0,1,0.345598,1.97279)" class="st1">
				<path d="M5.67 294.23 L51.02 294.23 A5.6692 5.6692 -180 0 0 56.69 288.56 L56.69 285.73 A5.6692 5.6692 -180 0 0 51.02
							 280.06 L5.67 280.06 A5.6692 5.6692 -180 0 0 -0 285.73 L0 288.56 A5.6692 5.6692 -180 0 0 5.67 294.23
							 Z" class="st2"/>
			</g>
			<path d="M5.67 294.23 L51.02 294.23 A5.6692 5.6692 -180 0 0 56.69 288.56 L56.69 285.73 A5.6692 5.6692 -180 0 0 51.02
						 280.06 L5.67 280.06 A5.6692 5.6692 -180 0 0 -0 285.73 L0 288.56 A5.6692 5.6692 -180 0 0 5.67 294.23 Z"
					class="st11"/>
			<text x="25.98" y="289.55" class="st16" v:langID="1033"><v:paragraph v:horizAlign="1"/><v:tabList/>r’</text>		</g>
		<g id="group26-82" transform="translate(208.466,-51.1411)" v:mID="26" v:groupContext="group">
			<title>Sheet.26</title>
			<g id="shape23-83" v:mID="23" v:groupContext="shape">
				<title>Rounded Rectangle.23</title>
				<desc>Certificate</desc>
				<v:userDefs>
					<v:ud v:nameU="CTypeTopLeftSnip" v:prompt="" v:val="VT0(0):5"/>
					<v:ud v:nameU="CTypeTopRightSnip" v:prompt="" v:val="VT0(0):5"/>
					<v:ud v:nameU="CTypeBotLeftSnip" v:prompt="" v:val="VT0(0):5"/>
					<v:ud v:nameU="CTypeBotRightSnip" v:prompt="" v:val="VT0(0):5"/>
					<v:ud v:nameU="CornerLockHoriz" v:prompt="" v:val="VT0(1):5"/>
					<v:ud v:nameU="CornerLockVert" v:prompt="" v:val="VT0(1):5"/>
					<v:ud v:nameU="CornerLockDiag" v:prompt="" v:val="VT0(0):5"/>
					<v:ud v:nameU="TopLeftOffset" v:prompt="" v:val="VT0(0.15748031496063):24"/>
					<v:ud v:nameU="TopRightOffset" v:prompt="" v:val="VT0(0.15748031496063):24"/>
					<v:ud v:nameU="BotLeftOffset" v:prompt="" v:val="VT0(0.15748031496063):24"/>
					<v:ud v:nameU="BotRightOffset" v:prompt="" v:val="VT0(0.15748031496063):24"/>
					<v:ud v:nameU="visVersion" v:prompt="" v:val="VT0(15):26"/>
					<v:ud v:nameU="TopLeftOffset" v:prompt="" v:val="VT0(0.098425193709222):1"/>
					<v:ud v:nameU="TopRightOffset" v:prompt="" v:val="VT0(0.098425193709222):1"/>
					<v:ud v:nameU="BotLeftOffset" v:prompt="" v:val="VT0(0.098425193709222):1"/>
					<v:ud v:nameU="BotRightOffset" v:prompt="" v:val="VT0(0.098425193709222):1"/>
				</v:userDefs>
				<v:textBlock v:margins="rect(4,4,4,4)" v:tabSpace="42.5197" v:verticalAlign="0"/>
				<v:textRect cx="35.4331" cy="260.766" width="70.87" height="66.9334"/>
				<g id="shadow23-84" v:groupContext="shadow" v:shadowOffsetX="0.345598" v:shadowOffsetY="-1.97279" v:shadowType="1"
						transform="matrix(1,0,0,1,0.345598,1.97279)" class="st1">
					<path d="M7.09 294.23 L63.78 294.23 A7.0865 7.0865 -180 0 0 70.87 287.15 L70.87 234.39 A7.0865 7.0865 -180 0
								 0 63.78 227.3 L7.09 227.3 A7.0865 7.0865 -180 0 0 0 234.39 L0 287.15 A7.0865 7.0865 -180 0 0 7.09
								 294.23 Z" class="st2"/>
				</g>
				<path d="M7.09 294.23 L63.78 294.23 A7.0865 7.0865 -180 0 0 70.87 287.15 L70.87 234.39 A7.0865 7.0865 -180 0 0 63.78
							 227.3 L7.09 227.3 A7.0865 7.0865 -180 0 0 0 234.39 L0 287.15 A7.0865 7.0865 -180 0 0 7.09 294.23 Z"
						class="st17"/>
				<text x="18.58" y="238.5" class="st8" v:langID="1033"><v:paragraph v:horizAlign="1"/><v:tabList/>Certificate</text>			</g>
			<g id="shape24-89" v:mID="24" v:groupContext="shape" transform="translate(7.08661,-31.5004)">
				<title>Rounded Rectangle.24</title>
				<desc>Message</desc>
				<v:userDefs>
					<v:ud v:nameU="CTypeTopLeftSnip" v:prompt="" v:val="VT0(0):5"/>
					<v:ud v:nameU="CTypeTopRightSnip" v:prompt="" v:val="VT0(0):5"/>
					<v:ud v:nameU="CTypeBotLeftSnip" v:prompt="" v:val="VT0(0):5"/>
					<v:ud v:nameU="CTypeBotRightSnip" v:prompt="" v:val="VT0(0):5"/>
					<v:ud v:nameU="CornerLockHoriz" v:prompt="" v:val="VT0(1):5"/>
					<v:ud v:nameU="CornerLockVert" v:prompt="" v:val="VT0(1):5"/>
					<v:ud v:nameU="CornerLockDiag" v:prompt="" v:val="VT0(0):5"/>
					<v:ud v:nameU="TopLeftOffset" v:prompt="" v:val="VT0(0.15748031496063):24"/>
					<v:ud v:nameU="TopRightOffset" v:prompt="" v:val="VT0(0.15748031496063):24"/>
					<v:ud v:nameU="BotLeftOffset" v:prompt="" v:val="VT0(0.15748031496063):24"/>
					<v:ud v:nameU="BotRightOffset" v:prompt="" v:val="VT0(0.15748031496063):24"/>
					<v:ud v:nameU="visVersion" v:prompt="" v:val="VT0(15):26"/>
					<v:ud v:nameU="TopLeftOffset" v:prompt="" v:val="VT0(0.078740154967378):1"/>
					<v:ud v:nameU="TopRightOffset" v:prompt="" v:val="VT0(0.078740154967378):1"/>
					<v:ud v:nameU="BotLeftOffset" v:prompt="" v:val="VT0(0.078740154967378):1"/>
					<v:ud v:nameU="BotRightOffset" v:prompt="" v:val="VT0(0.078740154967378):1"/>
				</v:userDefs>
				<v:textBlock v:margins="rect(4,4,4,4)" v:tabSpace="42.5197"/>
				<v:textRect cx="28.3465" cy="287.146" width="56.7" height="14.1732"/>
				<g id="shadow24-90" v:groupContext="shadow" v:shadowOffsetX="0.345598" v:shadowOffsetY="-1.97279" v:shadowType="1"
						transform="matrix(1,0,0,1,0.345598,1.97279)" class="st1">
					<path d="M5.67 294.23 L51.02 294.23 A5.6692 5.6692 -180 0 0 56.69 288.56 L56.69 285.73 A5.6692 5.6692 -180 0
								 0 51.02 280.06 L5.67 280.06 A5.6692 5.6692 -180 0 0 -0 285.73 L0 288.56 A5.6692 5.6692 -180 0 0
								 5.67 294.23 Z" class="st2"/>
				</g>
				<path d="M5.67 294.23 L51.02 294.23 A5.6692 5.6692 -180 0 0 56.69 288.56 L56.69 285.73 A5.6692 5.6692 -180 0 0 51.02
							 280.06 L5.67 280.06 A5.6692 5.6692 -180 0 0 -0 285.73 L0 288.56 A5.6692 5.6692 -180 0 0 5.67 294.23
							 Z" class="st11"/>
				<text x="14.02" y="289.55" class="st8" v:langID="1033"><v:paragraph v:horizAlign="1"/><v:tabList/>Message</text>			</g>
			<g id="shape25-95" v:mID="25" v:groupContext="shape" transform="translate(7.08661,-10.2405)">
				<title>Rounded Rectangle.25</title>
				<desc>Signature (r,s)</desc>
				<v:userDefs>
					<v:ud v:nameU="CTypeTopLeftSnip" v:prompt="" v:val="VT0(0):5"/>
					<v:ud v:nameU="CTypeTopRightSnip" v:prompt="" v:val="VT0(0):5"/>
					<v:ud v:nameU="CTypeBotLeftSnip" v:prompt="" v:val="VT0(0):5"/>
					<v:ud v:nameU="CTypeBotRightSnip" v:prompt="" v:val="VT0(0):5"/>
					<v:ud v:nameU="CornerLockHoriz" v:prompt="" v:val="VT0(1):5"/>
					<v:ud v:nameU="CornerLockVert" v:prompt="" v:val="VT0(1):5"/>
					<v:ud v:nameU="CornerLockDiag" v:prompt="" v:val="VT0(0):5"/>
					<v:ud v:nameU="TopLeftOffset" v:prompt="" v:val="VT0(0.15748031496063):24"/>
					<v:ud v:nameU="TopRightOffset" v:prompt="" v:val="VT0(0.15748031496063):24"/>
					<v:ud v:nameU="BotLeftOffset" v:prompt="" v:val="VT0(0.15748031496063):24"/>
					<v:ud v:nameU="BotRightOffset" v:prompt="" v:val="VT0(0.15748031496063):24"/>
					<v:ud v:nameU="visVersion" v:prompt="" v:val="VT0(15):26"/>
					<v:ud v:nameU="TopLeftOffset" v:prompt="" v:val="VT0(0.078740154967378):1"/>
					<v:ud v:nameU="TopRightOffset" v:prompt="" v:val="VT0(0.078740154967378):1"/>
					<v:ud v:nameU="BotLeftOffset" v:prompt="" v:val="VT0(0.078740154967378):1"/>
					<v:ud v:nameU="BotRightOffset" v:prompt="" v:val="VT0(0.078740154967378):1"/>
				</v:userDefs>
				<v:textBlock v:margins="rect(4,4,4,4)" v:tabSpace="42.5197"/>
				<v:textRect cx="28.3465" cy="287.146" width="56.7" height="14.1732"/>
				<g id="shadow25-96" v:groupContext="shadow" v:shadowOffsetX="0.345598" v:shadowOffsetY="-1.97279" v:shadowType="1"
						transform="matrix(1,0,0,1,0.345598,1.97279)" class="st1">
					<path d="M5.67 294.23 L51.02 294.23 A5.6692 5.6692 -180 0 0 56.69 288.56 L56.69 285.73 A5.6692 5.6692 -180 0
								 0 51.02 280.06 L5.67 280.06 A5.6692 5.6692 -180 0 0 -0 285.73 L0 288.56 A5.6692 5.6692 -180 0 0
								 5.67 294.23 Z" class="st2"/>
				</g>
				<path d="M5.67 294.23 L51.02 294.23 A5.6692 5.6692 -180 0 0 56.69 288.56 L56.69 285.73 A5.6692 5.6692 -180 0 0 51.02
							 280.06 L5.67 280.06 A5.6692 5.6692 -180 0 0 -0 285.73 L0 288.56 A5.6692 5.6692 -180 0 0 5.67 294.23
							 Z" class="st11"/>
				<text x="5.61" y="289.55" class="st8" v:langID="1033"><v:paragraph v:horizAlign="1"/><v:tabList/>Signature (<tspan
							class="st10">r,s</tspan>)</text>			</g>
		</g>
		<g id="shape27-102" v:mID="27" v:groupContext="shape" v:layerMember="0"
				transform="translate(162.381,493.894) rotate(-169.589)">
			<title>Line-arc connector.27</title>
			<v:userDefs>
				<v:ud v:nameU="Scale" v:val="VT0(1):26"/>
				<v:ud v:nameU="AntiScale" v:val="VT0(1):26"/>
				<v:ud v:nameU="visVersion" v:val="VT0(15):26"/>
			</v:userDefs>
			<path d="M-0 294.23 A67.6766 67.6766 -180 0 0 42.13 296.43 L42.48 296.32" class="st18"/>
		</g>
		<g id="shape28-108" v:mID="28" v:groupContext="shape" v:layerMember="0"
				transform="translate(179.097,-70.1664) rotate(2.29606)">
			<title>Line-arc connector.28</title>
			<v:userDefs>
				<v:ud v:nameU="Scale" v:val="VT0(1):26"/>
				<v:ud v:nameU="AntiScale" v:val="VT0(1):26"/>
				<v:ud v:nameU="visVersion" v:val="VT0(15):26"/>
			</v:userDefs>
			<path d="M-0 294.23 A131.012 131.012 -180 0 0 41.33 295.34 L41.69 295.29" class="st18"/>
		</g>
		<g id="shape30-113" v:mID="30" v:groupContext="shape" v:layerMember="0"
				transform="translate(207.841,-68.2809) rotate(36.8699)">
			<title>Line-arc connector.30</title>
			<v:userDefs>
				<v:ud v:nameU="Scale" v:val="VT0(1):26"/>
				<v:ud v:nameU="AntiScale" v:val="VT0(1):26"/>
				<v:ud v:nameU="visVersion" v:val="VT0(15):26"/>
			</v:userDefs>
			<path d="M0 294.23 A64.7391 64.7391 -180 0 0 65.66 297.3 L65.97 297.12" class="st12"/>
		</g>
		<g id="shape31-118" v:mID="31" v:groupContext="shape" v:layerMember="0" transform="translate(428.151,-141.301)">
			<title>Line-arc connector.31</title>
			<v:userDefs>
				<v:ud v:nameU="Scale" v:val="VT0(1):26"/>
				<v:ud v:nameU="AntiScale" v:val="VT0(1):26"/>
				<v:ud v:nameU="visVersion" v:val="VT0(15):26"/>
			</v:userDefs>
			<path d="M0 294.23 L21.31 294.23" class="st14"/>
		</g>
		<g id="shape32-123" v:mID="32" v:groupContext="shape" v:layerMember="0"
				transform="translate(432.11,461.085) rotate(-31.2813) scale(1,-1)">
			<title>Line-arc connector.32</title>
			<v:userDefs>
				<v:ud v:nameU="Scale" v:val="VT0(1):26"/>
				<v:ud v:nameU="AntiScale" v:val="VT0(1):26"/>
				<v:ud v:nameU="visVersion" v:val="VT0(15):26"/>
			</v:userDefs>
			<path d="M0 294.23 A101.409 101.409 0 0 1 74.96 291.63 L75.29 291.76" class="st18"/>
		</g>
		<g id="shape33-128" v:mID="33" v:groupContext="shape" v:layerMember="0"
				transform="translate(446.862,-154.751) rotate(36.4031)">
			<title>Line-arc connector.33</title>
			<v:userDefs>
				<v:ud v:nameU="Scale" v:val="VT0(1):26"/>
				<v:ud v:nameU="AntiScale" v:val="VT0(1):26"/>
				<v:ud v:nameU="visVersion" v:val="VT0(15):26"/>
			</v:userDefs>
			<path d="M0 294.23 A166.035 166.035 0 0 1 88.5 292.36 L88.84 292.45" class="st18"/>
		</g>
		<g id="shape34-133" v:mID="34" v:groupContext="shape" transform="translate(102.167,-5.27279)">
			<title>Rounded Rectangle.34</title>
			<desc>Random Number (k)</desc>
			<v:userDefs>
				<v:ud v:nameU="CTypeTopLeftSnip" v:prompt="" v:val="VT0(0):5"/>
				<v:ud v:nameU="CTypeTopRightSnip" v:prompt="" v:val="VT0(0):5"/>
				<v:ud v:nameU="CTypeBotLeftSnip" v:prompt="" v:val="VT0(0):5"/>
				<v:ud v:nameU="CTypeBotRightSnip" v:prompt="" v:val="VT0(0):5"/>
				<v:ud v:nameU="CornerLockHoriz" v:prompt="" v:val="VT0(1):5"/>
				<v:ud v:nameU="CornerLockVert" v:prompt="" v:val="VT0(1):5"/>
				<v:ud v:nameU="CornerLockDiag" v:prompt="" v:val="VT0(0):5"/>
				<v:ud v:nameU="TopLeftOffset" v:prompt="" v:val="VT0(0.15748031496063):24"/>
				<v:ud v:nameU="TopRightOffset" v:prompt="" v:val="VT0(0.15748031496063):24"/>
				<v:ud v:nameU="BotLeftOffset" v:prompt="" v:val="VT0(0.15748031496063):24"/>
				<v:ud v:nameU="BotRightOffset" v:prompt="" v:val="VT0(0.15748031496063):24"/>
				<v:ud v:nameU="visVersion" v:prompt="" v:val="VT0(15):26"/>
				<v:ud v:nameU="TopLeftOffset" v:prompt="" v:val="VT0(0.078740154967378):1"/>
				<v:ud v:nameU="TopRightOffset" v:prompt="" v:val="VT0(0.078740154967378):1"/>
				<v:ud v:nameU="BotLeftOffset" v:prompt="" v:val="VT0(0.078740154967378):1"/>
				<v:ud v:nameU="BotRightOffset" v:prompt="" v:val="VT0(0.078740154967378):1"/>
			</v:userDefs>
			<v:textBlock v:margins="rect(4,4,4,4)" v:tabSpace="42.5197"/>
			<v:textRect cx="28.3465" cy="282.912" width="56.7" height="22.6421"/>
			<g id="shadow34-134" v:groupContext="shadow" v:shadowOffsetX="0.345598" v:shadowOffsetY="-1.97279" v:shadowType="1"
					transform="matrix(1,0,0,1,0.345598,1.97279)" class="st1">
				<path d="M5.67 294.23 L51.02 294.23 A5.6692 5.6692 -180 0 0 56.69 288.56 L56.69 277.26 A5.6692 5.6692 -180 0 0 51.02
							 271.59 L5.67 271.59 A5.6692 5.6692 -180 0 0 -0 277.26 L0 288.56 A5.6692 5.6692 -180 0 0 5.67 294.23
							 Z" class="st2"/>
			</g>
			<path d="M5.67 294.23 L51.02 294.23 A5.6692 5.6692 -180 0 0 56.69 288.56 L56.69 277.26 A5.6692 5.6692 -180 0 0 51.02
						 271.59 L5.67 271.59 A5.6692 5.6692 -180 0 0 -0 277.26 L0 288.56 A5.6692 5.6692 -180 0 0 5.67 294.23 Z"
					class="st11"/>
			<text x="14.75" y="280.51" class="st8" v:langID="1033"><v:paragraph v:horizAlign="1"/><v:tabList/>Random <tspan
						x="9.83" dy="1.2em" class="st6">Number (</tspan><tspan class="st10">k</tspan>)</text>		</g>
		<g id="shape35-141" v:mID="35" v:groupContext="shape" v:layerMember="0" transform="translate(-163.72,266.318) rotate(-90)">
			<title>Line-arc connector.35</title>
			<v:userDefs>
				<v:ud v:nameU="Scale" v:val="VT0(1):26"/>
				<v:ud v:nameU="AntiScale" v:val="VT0(1):26"/>
				<v:ud v:nameU="visVersion" v:val="VT0(15):26"/>
			</v:userDefs>
			<path d="M0 294.23 L21.31 294.23" class="st14"/>
		</g>
		<g id="shape37-146" v:mID="37" v:groupContext="shape" transform="translate(183.663,-98.781)">
			<title>Sheet.37</title>
			<desc>z</desc>
			<v:textBlock v:margins="rect(4,4,4,4)" v:tabSpace="42.5197"/>
			<v:textRect cx="7.08661" cy="287.146" width="14.18" height="14.1732"/>
			<rect x="0" y="280.06" width="14.1732" height="14.1732" class="st19"/>
			<text x="5.11" y="290.15" class="st20" v:langID="1033"><v:paragraph v:horizAlign="1"/><v:tabList/>z</text>		</g>
		<g id="shape38-149" v:mID="38" v:groupContext="shape" transform="translate(307.088,-84.6078)">
			<title>Sheet.38</title>
			<desc>s, z</desc>
			<v:textBlock v:margins="rect(4,4,4,4)" v:tabSpace="42.5197"/>
			<v:textRect cx="15.9449" cy="287.146" width="31.89" height="14.1732"/>
			<rect x="0" y="280.06" width="31.8898" height="14.1732" class="st19"/>
			<text x="9.64" y="290.15" class="st20" v:langID="1033"><v:paragraph v:horizAlign="1"/><v:tabList/>s, z</text>		</g>
		<g id="shape39-152" v:mID="39" v:groupContext="shape" transform="translate(178.88,-51.1411)">
			<title>Sheet.39</title>
			<desc>r, s</desc>
			<v:textBlock v:margins="rect(4,4,4,4)" v:tabSpace="42.5197"/>
			<v:textRect cx="11.8701" cy="287.146" width="23.75" height="14.1732"/>
			<rect x="0" y="280.06" width="23.7402" height="14.1732" class="st19"/>
			<text x="5.79" y="290.15" class="st20" v:langID="1033"><v:paragraph v:horizAlign="1"/><v:tabList/>r, s</text>		</g>
		<g id="shape40-155" v:mID="40" v:groupContext="shape" transform="translate(321.852,-183.82)">
			<title>Sheet.40</title>
			<desc>Q</desc>
			<v:textBlock v:margins="rect(4,4,4,4)" v:tabSpace="42.5197"/>
			<v:textRect cx="7.08661" cy="287.146" width="14.18" height="14.1732"/>
			<rect x="0" y="280.06" width="14.1732" height="14.1732" class="st19"/>
			<text x="4" y="290.15" class="st20" v:langID="1033"><v:paragraph v:horizAlign="1"/><v:tabList/>Q</text>		</g>
		<g id="shape41-158" v:mID="41" v:groupContext="shape" transform="translate(176.576,-212.167)">
			<title>Sheet.41</title>
			<desc>Q</desc>
			<v:textBlock v:margins="rect(4,4,4,4)" v:tabSpace="42.5197"/>
			<v:textRect cx="7.08661" cy="287.146" width="14.18" height="14.1732"/>
			<rect x="0" y="280.06" width="14.1732" height="14.1732" class="st19"/>
			<text x="4" y="290.15" class="st20" v:langID="1033"><v:paragraph v:horizAlign="1"/><v:tabList/>Q</text>		</g>
		<g id="shape42-161" v:mID="42" v:groupContext="shape" transform="translate(130.513,-169.647)">
			<title>Sheet.42</title>
			<desc>d</desc>
			<v:textBlock v:margins="rect(4,4,4,4)" v:tabSpace="42.5197"/>
			<v:textRect cx="7.08661" cy="287.146" width="14.18" height="14.1732"/>
			<rect x="0" y="280.06" width="14.1732" height="14.1732" class="st19"/>
			<text x="4.46" y="290.15" class="st20" v:langID="1033"><v:paragraph v:horizAlign="1"/><v:tabList/>d</text>		</g>
		<g id="shape43-164" v:mID="43" v:groupContext="shape" transform="translate(70.2771,-212.167)">
			<title>Sheet.43</title>
			<desc>G</desc>
			<v:textBlock v:margins="rect(4,4,4,4)" v:tabSpace="42.5197"/>
			<v:textRect cx="7.08661" cy="287.146" width="14.18" height="14.1732"/>
			<rect x="0" y="280.06" width="14.1732" height="14.1732" class="st19"/>
			<text x="4" y="290.15" class="st20" v:langID="1033"><v:paragraph v:horizAlign="1"/><v:tabList/>G</text>		</g>
		<g id="shape44-167" v:mID="44" v:groupContext="shape" transform="translate(73.8204,-91.6944)">
			<title>Sheet.44</title>
			<desc>G</desc>
			<v:textBlock v:margins="rect(4,4,4,4)" v:tabSpace="42.5197"/>
			<v:textRect cx="7.08661" cy="287.146" width="14.18" height="14.1732"/>
			<rect x="0" y="280.06" width="14.1732" height="14.1732" class="st19"/>
			<text x="4" y="290.15" class="st20" v:langID="1033"><v:paragraph v:horizAlign="1"/><v:tabList/>G</text>		</g>
		<g id="shape45-170" v:mID="45" v:groupContext="shape" transform="translate(385.631,-183.82)">
			<title>Sheet.45</title>
			<desc>G</desc>
			<v:textBlock v:margins="rect(4,4,4,4)" v:tabSpace="42.5197"/>
			<v:textRect cx="7.08661" cy="287.146" width="14.18" height="14.1732"/>
			<rect x="0" y="280.06" width="14.1732" height="14.1732" class="st19"/>
			<text x="4" y="290.15" class="st20" v:langID="1033"><v:paragraph v:horizAlign="1"/><v:tabList/>G</text>		</g>
		<g id="shape46-173" v:mID="46" v:groupContext="shape" transform="translate(130.513,-120.041)">
			<title>Sheet.46</title>
			<desc>d</desc>
			<v:textBlock v:margins="rect(4,4,4,4)" v:tabSpace="42.5197"/>
			<v:textRect cx="7.08661" cy="287.146" width="14.18" height="14.1732"/>
			<rect x="0" y="280.06" width="14.1732" height="14.1732" class="st19"/>
			<text x="4.46" y="290.15" class="st20" v:langID="1033"><v:paragraph v:horizAlign="1"/><v:tabList/>d</text>		</g>
		<g id="shape47-176" v:mID="47" v:groupContext="shape" transform="translate(130.513,-35.0015)">
			<title>Sheet.47</title>
			<desc>k</desc>
			<v:textBlock v:margins="rect(4,4,4,4)" v:tabSpace="42.5197"/>
			<v:textRect cx="7.08661" cy="287.146" width="14.18" height="14.1732"/>
			<rect x="0" y="280.06" width="14.1732" height="14.1732" class="st19"/>
			<text x="4.81" y="290.15" class="st20" v:langID="1033"><v:paragraph v:horizAlign="1"/><v:tabList/>k</text>		</g>
	</g>
</svg>
