<?xml version="1.0" encoding="UTF-8" standalone="no"?>
<!DOCTYPE svg PUBLIC "-//W3C//DTD SVG 1.1//EN"
 "http://www.w3.org/Graphics/SVG/1.1/DTD/svg11.dtd">
<!-- Generated by graphviz version 2.43.0 (0)
 -->
<!-- Title: MemoryScrubbingStateMachine Pages: 1 -->
<svg width="942pt" height="184pt"
 viewBox="0.00 0.00 942.00 184.00" xmlns="http://www.w3.org/2000/svg" xmlns:xlink="http://www.w3.org/1999/xlink">
<g id="graph0" class="graph" transform="scale(1 1) rotate(0) translate(4 180)">
<title>MemoryScrubbingStateMachine</title>
<polygon fill="white" stroke="transparent" points="-4,4 -4,-180 938,-180 938,4 -4,4"/>
<!-- INIT -->
<g id="node1" class="node">
<title>INIT</title>
<path fill="none" stroke="black" d="M422,-75.5C422,-75.5 12,-75.5 12,-75.5 6,-75.5 0,-69.5 0,-63.5 0,-63.5 0,-34.5 0,-34.5 0,-28.5 6,-22.5 12,-22.5 12,-22.5 422,-22.5 422,-22.5 428,-22.5 434,-28.5 434,-34.5 434,-34.5 434,-63.5 434,-63.5 434,-69.5 428,-75.5 422,-75.5"/>
<text text-anchor="middle" x="217" y="-60.3" font-family="Helvetica,sans-Serif" font-size="14.00">SCRUB_INITIALIZATION</text>
<text text-anchor="middle" x="217" y="-45.3" font-family="Helvetica,sans-Serif" font-size="14.00">• Waits for DDR training completion (EVENT_DDR_TRAINED)</text>
<text text-anchor="middle" x="217" y="-30.3" font-family="Helvetica,sans-Serif" font-size="14.00">• Initializes scrubbing process</text>
</g>
<!-- SCRUB -->
<g id="node2" class="node">
<title>SCRUB</title>
<path fill="none" stroke="black" d="M922,-98C922,-98 635,-98 635,-98 629,-98 623,-92 623,-86 623,-86 623,-12 623,-12 623,-6 629,0 635,0 635,0 922,0 922,0 928,0 934,-6 934,-12 934,-12 934,-86 934,-86 934,-92 928,-98 922,-98"/>
<text text-anchor="middle" x="778.5" y="-82.8" font-family="Helvetica,sans-Serif" font-size="14.00">SCRUB_SCRUBBING</text>
<text text-anchor="middle" x="778.5" y="-67.8" font-family="Helvetica,sans-Serif" font-size="14.00">• Processes memory regions in chunks</text>
<text text-anchor="middle" x="778.5" y="-52.8" font-family="Helvetica,sans-Serif" font-size="14.00">• Uses atomic OR (L2LIM) or volatile reads</text>
<text text-anchor="middle" x="778.5" y="-37.8" font-family="Helvetica,sans-Serif" font-size="14.00">• Triggers cache/TLB flushes</text>
<text text-anchor="middle" x="778.5" y="-22.8" font-family="Helvetica,sans-Serif" font-size="14.00">• Coordinates with U54 cores via IPI</text>
<text text-anchor="middle" x="778.5" y="-7.8" font-family="Helvetica,sans-Serif" font-size="14.00">• Cycles through regions indefinitely</text>
</g>
<!-- INIT&#45;&gt;SCRUB -->
<g id="edge1" class="edge">
<title>INIT&#45;&gt;SCRUB</title>
<path fill="none" stroke="black" d="M434.32,-49C493.52,-49 556.72,-49 612.54,-49"/>
<polygon fill="black" stroke="black" points="612.88,-52.5 622.88,-49 612.88,-45.5 612.88,-52.5"/>
<text text-anchor="middle" x="528.5" y="-52.8" font-family="Helvetica,sans-Serif" font-size="14.00">EVENT_DDR_TRAINED</text>
</g>
<!-- SCRUB&#45;&gt;SCRUB -->
<g id="edge2" class="edge">
<title>SCRUB&#45;&gt;SCRUB</title>
<path fill="none" stroke="black" d="M733.14,-98.08C737.74,-108.49 752.87,-116 778.5,-116 796.92,-116 809.92,-112.12 817.48,-106.07"/>
<polygon fill="black" stroke="black" points="820.36,-108.08 823.86,-98.08 814.89,-103.71 820.36,-108.08"/>
<text text-anchor="middle" x="778.5" y="-164.8" font-family="Helvetica,sans-Serif" font-size="14.00">Loop:</text>
<text text-anchor="middle" x="778.5" y="-149.8" font-family="Helvetica,sans-Serif" font-size="14.00">1. Process next memory chunk</text>
<text text-anchor="middle" x="778.5" y="-134.8" font-family="Helvetica,sans-Serif" font-size="14.00">2. Manage cache flush timing</text>
<text text-anchor="middle" x="778.5" y="-119.8" font-family="Helvetica,sans-Serif" font-size="14.00">3. Cycle regions</text>
</g>
</g>
</svg>
