<?xml version="1.0" encoding="UTF-8" standalone="no"?>
<!DOCTYPE svg PUBLIC "-//W3C//DTD SVG 1.1//EN" "http://www.w3.org/Graphics/SVG/1.1/DTD/svg11.dtd">
<!-- Generated by Microsoft Visio, SVG Export Wdog_Diagrams3.svg Page-1 -->
<svg xmlns="http://www.w3.org/2000/svg" xmlns:xlink="http://www.w3.org/1999/xlink" xmlns:ev="http://www.w3.org/2001/xml-events"
		xmlns:v="http://schemas.microsoft.com/visio/2003/SVGExtensions/" width="8.18799in" height="5.06444in"
		viewBox="0 0 589.535 364.64" xml:space="preserve" color-interpolation-filters="sRGB" class="st23">
	<v:documentProperties v:langID="1033" v:metric="true" v:viewMarkup="false">
		<v:userDefs>
			<v:ud v:nameU="msvConvertTheme"/>
		</v:userDefs>
	</v:documentProperties>

	<style type="text/css">
	<![CDATA[
		.st1 {fill:#ff0000;fill-opacity:0.4;stroke:none;stroke-linecap:round;stroke-linejoin:round;stroke-width:0.24}
		.st2 {marker-start:url(#mrkr13-9);stroke:#000000;stroke-linecap:round;stroke-linejoin:round;stroke-width:2.16}
		.st3 {fill:#000000;fill-opacity:1;stroke:#000000;stroke-opacity:1;stroke-width:0.46153846153846}
		.st4 {marker-end:url(#mrkr13-15);stroke:#000000;stroke-linecap:round;stroke-linejoin:round;stroke-width:2.16}
		.st5 {stroke:#000000;stroke-linecap:round;stroke-linejoin:round;stroke-width:0.24}
		.st6 {stroke:#000000;stroke-linecap:round;stroke-linejoin:round;stroke-width:1.2}
		.st7 {fill:none;stroke:none;stroke-linecap:round;stroke-linejoin:round;stroke-width:0.72}
		.st8 {fill:#000000;font-family:Arial;font-size:0.666664em}
		.st9 {font-size:1em}
		.st10 {marker-end:url(#mrkr13-78);stroke:#000000;stroke-linecap:round;stroke-linejoin:round;stroke-width:0.24}
		.st11 {fill:#000000;fill-opacity:1;stroke:#000000;stroke-opacity:1;stroke-width:0.08695652173913}
		.st12 {fill:#000000;font-family:Arial;font-size:0.833336em}
		.st13 {fill:none;stroke:#ff0000;stroke-linecap:round;stroke-linejoin:round;stroke-width:1.2}
		.st14 {marker-start:url(#mrkr13-110);stroke:#ff0000;stroke-linecap:round;stroke-linejoin:round;stroke-width:1.2}
		.st15 {fill:#ff0000;fill-opacity:1;stroke:#ff0000;stroke-opacity:1;stroke-width:0.32258064516129}
		.st16 {marker-start:url(#mrkr13-137);stroke:#000000;stroke-linecap:round;stroke-linejoin:round;stroke-width:0.24}
		.st17 {stroke:#000000;stroke-dasharray:1.2,2.4;stroke-linecap:round;stroke-linejoin:round;stroke-width:1.2}
		.st18 {stroke:#4677bf;stroke-linecap:round;stroke-linejoin:round;stroke-width:0.24}
		.st19 {fill:none;stroke:#00b050;stroke-linecap:round;stroke-linejoin:round;stroke-width:1.2}
		.st20 {stroke:#00b050;stroke-linecap:round;stroke-linejoin:round;stroke-width:0.72}
		.st21 {fill:#00b050;fill-opacity:0.4;stroke:none;stroke-linecap:round;stroke-linejoin:round;stroke-width:0.24}
		.st22 {fill:#5880b3;fill-opacity:0.4;stroke:none;stroke-linecap:round;stroke-linejoin:round;stroke-width:0.24}
		.st23 {fill:none;fill-rule:evenodd;font-size:12px;overflow:visible;stroke-linecap:square;stroke-miterlimit:3}
	]]>
	</style>

	<defs id="Markers">
		<g id="lend13">
			<path d="M 3 1 L 0 0 L 3 -1 L 3 1 " style="stroke:none"/>
		</g>
		<marker id="mrkr13-9" class="st3" v:arrowType="13" v:arrowSize="2" v:setback="6.33333" refX="6.3333333333333" orient="auto"
				markerUnits="strokeWidth" overflow="visible">
			<use xlink:href="#lend13" transform="scale(2.1666666666667) "/>
		</marker>
		<marker id="mrkr13-15" class="st3" v:arrowType="13" v:arrowSize="2" v:setback="6.5" refX="-6.5" orient="auto"
				markerUnits="strokeWidth" overflow="visible">
			<use xlink:href="#lend13" transform="scale(-2.1666666666667,-2.1666666666667) "/>
		</marker>
		<marker id="mrkr13-78" class="st11" v:arrowType="13" v:arrowSize="2" v:setback="34.5" refX="-34.5" orient="auto"
				markerUnits="strokeWidth" overflow="visible">
			<use xlink:href="#lend13" transform="scale(-11.5,-11.5) "/>
		</marker>
		<marker id="mrkr13-110" class="st15" v:arrowType="13" v:arrowSize="2" v:setback="9" refX="9" orient="auto"
				markerUnits="strokeWidth" overflow="visible">
			<use xlink:href="#lend13" transform="scale(3.1) "/>
		</marker>
		<marker id="mrkr13-137" class="st11" v:arrowType="13" v:arrowSize="2" v:setback="33" refX="33" orient="auto"
				markerUnits="strokeWidth" overflow="visible">
			<use xlink:href="#lend13" transform="scale(11.5) "/>
		</marker>
	</defs>
	<g v:mID="0" v:index="1" v:groupContext="foregroundPage">
		<title>Page-1</title>
		<v:pageProperties v:drawingScale="0.0393701" v:pageScale="0.0393701" v:drawingUnits="24" v:shadowOffsetX="8.50394"
				v:shadowOffsetY="-8.50394"/>
		<v:layer v:name="Connector" v:index="0"/>
		<g id="group62-1" transform="translate(0,-57.5152)" v:mID="62" v:groupContext="group">
			<title>Sheet.62</title>
			<g id="shape59-2" v:mID="59" v:groupContext="shape" transform="translate(63.7795,-143.745)">
				<title>Rectangle</title>
				<v:userDefs>
					<v:ud v:nameU="visVersion" v:val="VT0(15):26"/>
				</v:userDefs>
				<rect x="0" y="275.349" width="496.063" height="89.2913" class="st1"/>
			</g>
			<g id="shape1-4" v:mID="1" v:groupContext="shape" transform="translate(429.138,73.5492) rotate(90.1446)">
				<title>Sheet.1</title>
				<path d="M13.68 364.64 L14.04 364.64 L285.23 364.64" class="st2"/>
			</g>
			<g id="shape2-10" v:mID="2" v:groupContext="shape" transform="translate(63.7795,-6.78397)">
				<title>Sheet.2</title>
				<path d="M0 364.64 L496.2 364.64" class="st4"/>
			</g>
			<g id="shape3-16" v:mID="3" v:groupContext="shape" transform="translate(64.4995,-143.997)">
				<title>Sheet.3</title>
				<path d="M0 364.64 L496.06 364.64" class="st5"/>
			</g>
			<g id="shape4-19" v:mID="4" v:groupContext="shape" transform="translate(64.4995,-232.806)">
				<title>Sheet.4</title>
				<path d="M0 364.64 L496.06 364.64" class="st5"/>
			</g>
			<g id="shape5-22" v:mID="5" v:groupContext="shape" transform="translate(386.422,-39.4211) rotate(61.988)">
				<title>Sheet.5</title>
				<path d="M0 364.64 L150.89 364.64" class="st6"/>
			</g>
			<g id="shape6-25" v:mID="6" v:groupContext="shape" transform="translate(-229.274,265.047) rotate(-90)">
				<title>Sheet.6</title>
				<path d="M0 364.64 L133.21 364.64" class="st6"/>
			</g>
			<g id="shape7-28" v:mID="7" v:groupContext="shape" transform="translate(620.28,-39.4211) rotate(61.988)">
				<title>Sheet.7</title>
				<path d="M0 364.64 L150.89 364.64" class="st6"/>
			</g>
			<g id="shape8-31" v:mID="8" v:groupContext="shape" transform="translate(-67.0003,356.694) rotate(-89.8175)">
				<title>Sheet.8</title>
				<path d="M0 364.64 L226.02 364.64" class="st6"/>
			</g>
			<g id="shape9-34" v:mID="9" v:groupContext="shape" transform="translate(544.275,-4.87443) rotate(67.981)">
				<title>Sheet.9</title>
				<path d="M0 364.64 L243.8 364.64" class="st6"/>
			</g>
			<g id="shape10-37" v:mID="10" v:groupContext="shape" transform="translate(-158.408,265.047) rotate(-90)">
				<title>Sheet.10</title>
				<path d="M0 364.64 L133.21 364.64" class="st6"/>
			</g>
			<g id="shape11-40" v:mID="11" v:groupContext="shape" transform="translate(457.288,-39.4211) rotate(61.988)">
				<title>Sheet.11</title>
				<path d="M0 364.64 L150.89 364.64" class="st6"/>
			</g>
			<g id="shape12-43" v:mID="12" v:groupContext="shape" transform="translate(4.58395,265.047) rotate(-90)">
				<title>Sheet.12</title>
				<path d="M0 364.64 L133.21 364.64" class="st6"/>
			</g>
			<g id="shape13-46" v:mID="13" v:groupContext="shape" transform="translate(764.112,-34.0111) rotate(62.9467)">
				<title>Sheet.13</title>
				<path d="M0 364.64 L124.65 364.64" class="st6"/>
			</g>
			<g id="shape14-49" v:mID="14" v:groupContext="shape" transform="translate(691.146,-39.4211) rotate(61.988)">
				<title>Sheet.14</title>
				<path d="M0 364.64 L75.44 364.64" class="st6"/>
			</g>
			<g id="shape15-52" v:mID="15" v:groupContext="shape" transform="translate(74.7301,357.856) rotate(-90)">
				<title>Sheet.15</title>
				<path d="M0 364.64 L226.02 364.64" class="st6"/>
			</g>
			<g id="shape16-55" v:mID="16" v:groupContext="shape" transform="translate(482.61,-169.9)">
				<title>Sheet.16</title>
				<desc>Refresh of counter not allowed while counter value is in this...</desc>
				<v:textBlock v:margins="rect(4,4,4,4)" v:tabSpace="42.5197"/>
				<v:textRect cx="46.063" cy="346.138" width="92.13" height="37.0035"/>
				<rect x="0" y="327.636" width="92.126" height="37.0035" class="st7"/>
				<text x="4" y="334.14" class="st8" v:langID="6153"><v:paragraph/><v:tabList/>Refresh of counter not <tspan x="4"
							dy="1.2em" class="st9">allowed while counter </tspan><tspan x="4" dy="1.2em" class="st9">value is in this region</tspan><tspan
							class="st9" v:langID="2057"> </tspan><tspan x="4" dy="1.2em" class="st9" v:langID="2057">when enforbidden=1</tspan></text>			</g>
			<g id="shape17-62" v:mID="17" v:groupContext="shape" transform="translate(482.61,-84.7917)">
				<title>Sheet.17</title>
				<desc>Refresh of counter permitted while counter value is in this r...</desc>
				<v:textBlock v:margins="rect(4,4,4,4)" v:tabSpace="42.5197"/>
				<v:textRect cx="46.063" cy="346.138" width="92.13" height="37.0035"/>
				<rect x="0" y="327.636" width="92.126" height="37.0035" class="st7"/>
				<text x="4" y="338.94" class="st8" v:langID="6153"><v:paragraph/><v:tabList/>Refresh of counter <tspan x="4"
							dy="1.2em" class="st9">permitted while counter </tspan><tspan x="4" dy="1.2em" class="st9">value is in this region</tspan></text>			</g>
			<g id="shape18-67" v:mID="18" v:groupContext="shape" transform="translate(7.80661,-225.405)">
				<title>Sheet.18</title>
				<desc>WDOGLOAD</desc>
				<v:textBlock v:margins="rect(4,4,4,4)" v:tabSpace="42.5197"/>
				<v:textRect cx="28.3465" cy="357.239" width="56.7" height="14.8014"/>
				<rect x="0" y="349.839" width="56.6929" height="14.8014" class="st7"/>
				<text x="5.13" y="359.64" class="st8" v:langID="6153"><v:paragraph v:horizAlign="2"/><v:tabList/>WDOGLOAD</text>			</g>
			<g id="shape19-70" v:mID="19" v:groupContext="shape" transform="translate(0.72,-136.597)">
				<title>Sheet.19</title>
				<desc>WDOGMVRP</desc>
				<v:textBlock v:margins="rect(4,4,4,4)" v:tabSpace="42.5197"/>
				<v:textRect cx="31.8898" cy="357.239" width="63.78" height="14.8014"/>
				<rect x="0" y="349.839" width="63.7795" height="14.8014" class="st7"/>
				<text x="10.89" y="359.64" class="st8" v:langID="6153"><v:paragraph v:horizAlign="2"/><v:tabList/>WDOGMVRP</text>			</g>
			<g id="shape20-73" v:mID="20" v:groupContext="shape" transform="translate(160.489,159.957) rotate(-90)">
				<title>Sheet.20</title>
				<path d="M0 364.64 L19.84 364.64" class="st10"/>
			</g>
			<g id="shape21-79" v:mID="21" v:groupContext="shape" transform="translate(160.489,245.805) rotate(-90)">
				<title>Sheet.21</title>
				<path d="M0 364.64 L16.88 364.64" class="st10"/>
			</g>
			<g id="shape22-84" v:mID="22" v:groupContext="shape" transform="translate(889.769,192.52) rotate(90)">
				<title>Sheet.22</title>
				<path d="M0 364.64 L19.84 364.64" class="st10"/>
			</g>
			<g id="shape23-89" v:mID="23" v:groupContext="shape" transform="translate(889.769,276.888) rotate(90)">
				<title>Sheet.23</title>
				<path d="M0 364.64 L16.88 364.64" class="st10"/>
			</g>
			<g id="shape24-94" v:mID="24" v:groupContext="shape" transform="translate(21.9798,-277.21)">
				<title>Sheet.24</title>
				<desc>counter value</desc>
				<v:textBlock v:margins="rect(4,4,4,4)" v:tabSpace="42.5197"/>
				<v:textRect cx="23.3858" cy="353.539" width="46.78" height="22.2021"/>
				<rect x="0" y="342.438" width="46.7717" height="22.2021" class="st7"/>
				<text x="4" y="350.54" class="st12" v:langID="6153"><v:paragraph/><v:tabList/>counter<v:newlineChar/><tspan x="4"
							dy="1.2em" class="st9">value</tspan></text>			</g>
			<g id="shape25-98" v:mID="25" v:groupContext="shape" transform="translate(520.866,-9.11608)">
				<title>Sheet.25</title>
				<desc>time</desc>
				<v:textBlock v:margins="rect(4,4,4,4)" v:tabSpace="42.5197"/>
				<v:textRect cx="13.4646" cy="358.719" width="26.93" height="11.8411"/>
				<rect x="0" y="352.799" width="26.9291" height="11.8411" class="st7"/>
				<text x="4.02" y="361.72" class="st12" v:langID="6153"><v:paragraph v:horizAlign="1"/><v:tabList/>time</text>			</g>
			<g id="shape27-101" v:mID="27" v:groupContext="shape" transform="translate(266.457,-62.8487)">
				<title>Circle.27</title>
				<v:userDefs>
					<v:ud v:nameU="visVersion" v:val="VT0(11):26"/>
				</v:userDefs>
				<path d="M0 357.24 A7.08661 7.4007 0 0 1 14.17 357.24 A7.08661 7.4007 0 0 1 0 357.24 Z" class="st13"/>
			</g>
			<g id="shape26-103" v:mID="26" v:groupContext="shape" transform="translate(397.57,-158.799)">
				<title>Circle.26</title>
				<v:userDefs>
					<v:ud v:nameU="visVersion" v:val="VT0(11):26"/>
				</v:userDefs>
				<path d="M0 357.24 A7.08661 7.4007 0 0 1 14.17 357.24 A7.08661 7.4007 0 0 1 0 357.24 Z" class="st13"/>
			</g>
			<g id="shape29-105" v:mID="29" v:groupContext="shape" transform="translate(528.906,549.754) rotate(135)">
				<title>Sheet.29</title>
				<path d="M10.38 364.1 L10.73 364.2 A22.9454 11.8171 -174.68 0 0 32.07 361.14" class="st14"/>
			</g>
			<g id="shape30-111" v:mID="30" v:groupContext="shape" transform="translate(212.598,-20.9572)">
				<title>Sheet.30</title>
				<desc>Interrupt generated due to counter timeout</desc>
				<v:textBlock v:margins="rect(4,4,4,4)" v:tabSpace="42.5197"/>
				<v:textRect cx="35.4331" cy="348.358" width="70.87" height="32.5631"/>
				<rect x="0" y="332.077" width="70.8661" height="32.5631" class="st7"/>
				<text x="4" y="341.16" class="st8" v:langID="2057"><v:paragraph/><v:tabList/>I<tspan class="st9" v:langID="6153">nterrupt <v:newlineChar/></tspan><tspan
							x="4" dy="1.2em" class="st9" v:langID="6153">generated due to <v:newlineChar/></tspan><tspan x="4"
							dy="1.2em" class="st9" v:langID="6153">counter timeout</tspan></text>			</g>
			<g id="shape31-117" v:mID="31" v:groupContext="shape" transform="translate(45.1366,156.898) rotate(-84.5752)">
				<title>Sheet.31</title>
				<path d="M10.64 362.99 L10.99 363.06 A48.0572 11.8479 -178.02 0 0 67.34 361.14" class="st14"/>
			</g>
			<g id="shape32-122" v:mID="32" v:groupContext="shape" transform="translate(357.165,-240.642)">
				<title>Sheet.32</title>
				<desc>Iinterrupt generated due to counter refresh in forbidden wind...</desc>
				<v:textBlock v:margins="rect(4,4,4,4)" v:tabSpace="42.5197"/>
				<v:textRect cx="58.8189" cy="343.918" width="117.64" height="41.4439"/>
				<rect x="0" y="323.196" width="117.638" height="41.4439" class="st7"/>
				<text x="4" y="331.92" class="st8" v:langID="2057"><v:paragraph/><v:tabList/>I<tspan class="st9" v:langID="6153">interrupt generated due to <v:newlineChar/></tspan><tspan
							x="4" dy="1.2em" class="st9" v:langID="6153">counter refresh in forbidden</tspan> <tspan x="4"
							dy="1.2em" class="st9" v:langID="6153">window<v:newlineChar/></tspan><tspan x="4" dy="1.2em"
							class="st9">Enabled by enforbidden bit</tspan></text>			</g>
			<g id="shape28-129" v:mID="28" v:groupContext="shape" transform="translate(139.618,-22.6258)">
				<title>Sheet.28</title>
				<desc>Counter refresh</desc>
				<v:textBlock v:margins="rect(4,4,4,4)" v:tabSpace="42.5197"/>
				<v:textRect cx="35.4331" cy="348.358" width="70.87" height="32.5631"/>
				<rect x="0" y="332.077" width="70.8661" height="32.5631" class="st7"/>
				<text x="4" y="350.76" class="st8" v:langID="6153"><v:paragraph/><v:tabList/>Counter refresh</text>			</g>
			<g id="shape33-132" v:mID="33" v:groupContext="shape" transform="translate(464.619,119.64) rotate(65.7429)">
				<title>Sheet.33</title>
				<path d="M7.74 362.82 L8.09 362.9 A39.4018 11.8443 -177.5 0 0 55.2 361.14" class="st16"/>
			</g>
			<g id="shape34-138" v:mID="34" v:groupContext="shape"
					transform="translate(-132.891,143.845) rotate(-69.891) scale(-1,1)">
				<title>Sheet.34</title>
				<path d="M7.73 362.86 L8.08 362.94 A38.2573 11.8436 -177.41 0 0 53.59 361.14" class="st16"/>
			</g>
			<g id="shape35-143" v:mID="35" v:groupContext="shape" transform="translate(1.59872E-14,-62.8487)">
				<title>Sheet.35</title>
				<desc>WDOGTRIG</desc>
				<v:textBlock v:margins="rect(4,4,4,4)" v:tabSpace="42.5197"/>
				<v:textRect cx="31.8898" cy="357.239" width="63.78" height="14.8014"/>
				<rect x="0" y="349.839" width="63.7795" height="14.8014" class="st7"/>
				<text x="14.9" y="359.64" class="st8" v:langID="6153"><v:paragraph v:horizAlign="2"/><v:tabList/>WDOG<tspan
							class="st9" v:langID="2057">TRIG</tspan></text>			</g>
			<g id="shape36-147" v:mID="36" v:groupContext="shape" transform="translate(63.9381,-69.6146)">
				<title>Sheet.36</title>
				<path d="M0 364.64 L496.06 364.64" class="st5"/>
			</g>
			<g id="shape37-150" v:mID="37" v:groupContext="shape" transform="translate(291.142,5.68434E-14)">
				<title>Circle.37</title>
				<v:userDefs>
					<v:ud v:nameU="visVersion" v:val="VT0(11):26"/>
				</v:userDefs>
				<path d="M0 357.86 A6.49606 6.78397 0 1 1 12.99 357.86 A6.49606 6.78397 0 1 1 0 357.86 Z" class="st13"/>
			</g>
			<g id="shape40-152" v:mID="40" v:groupContext="shape" transform="translate(727.868,123.77) rotate(61.988)">
				<title>Sheet.40</title>
				<path d="M0 364.64 L71.17 364.64" class="st6"/>
			</g>
			<g id="shape41-155" v:mID="41" v:groupContext="shape" transform="translate(769.265,193.576) rotate(89.2357)">
				<title>Sheet.41</title>
				<path d="M0 364.64 L96.59 364.64" class="st17"/>
			</g>
			<g id="shape42-158" v:mID="42" v:groupContext="shape" v:layerMember="0" transform="translate(397.57,-173.6)">
				<title>Dynamic connector</title>
				<path d="M7.09 364.64 L7.09 297.6" class="st18"/>
			</g>
			<g id="shape43-161" v:mID="43" v:groupContext="shape" transform="translate(432.278,-0.302641)">
				<title>Circle.43</title>
				<v:userDefs>
					<v:ud v:nameU="visVersion" v:val="VT0(11):26"/>
				</v:userDefs>
				<path d="M0 357.86 A6.49606 6.78397 0 1 1 12.99 357.86 A6.49606 6.78397 0 1 1 0 357.86 Z" class="st13"/>
			</g>
			<g id="shape46-163" v:mID="46" v:groupContext="shape"
					transform="translate(274.441,-83.4308) rotate(-15.2159) scale(-1,1)">
				<title>Sheet.46</title>
				<path d="M7.63 363.25 L7.98 363.35 A28.8674 11.8337 -176.27 0 0 40.4 361.14" class="st16"/>
			</g>
			<g id="shape47-168" v:mID="47" v:groupContext="shape" transform="translate(312.992,-84.7367)">
				<title>Sheet.47</title>
				<desc>Counter refresh</desc>
				<v:textBlock v:margins="rect(4,4,4,4)" v:tabSpace="42.5197"/>
				<v:textRect cx="27.7559" cy="348.358" width="55.52" height="32.5631"/>
				<rect x="0" y="332.077" width="55.5118" height="32.5631" class="st7"/>
				<text x="4" y="345.96" class="st8" v:langID="6153"><v:paragraph/><v:tabList/>Counter <v:newlineChar/><tspan x="4"
							dy="1.2em" class="st9">refresh</tspan></text>			</g>
			<g id="shape48-172" v:mID="48" v:groupContext="shape" transform="translate(104.882,-136.864)">
				<title>Circle.48</title>
				<v:userDefs>
					<v:ud v:nameU="visVersion" v:val="VT0(11):26"/>
				</v:userDefs>
				<path d="M0 358.81 A5.57907 5.82633 0 0 1 11.16 358.81 A5.57907 5.82633 0 1 1 0 358.81 Z" class="st19"/>
			</g>
			<g id="shape49-174" v:mID="49" v:groupContext="shape" transform="translate(177.165,-136.922)">
				<title>Circle.49</title>
				<v:userDefs>
					<v:ud v:nameU="visVersion" v:val="VT0(11):26"/>
				</v:userDefs>
				<path d="M0 358.84 A5.55118 5.79721 0 0 1 11.1 358.84 A5.55118 5.79721 0 0 1 0 358.84 Z" class="st19"/>
			</g>
			<g id="shape50-176" v:mID="50" v:groupContext="shape" transform="translate(236.929,-136.922)">
				<title>Circle.50</title>
				<v:userDefs>
					<v:ud v:nameU="visVersion" v:val="VT0(11):26"/>
				</v:userDefs>
				<path d="M0 358.84 A5.55118 5.79721 0 0 1 11.1 358.84 A5.55118 5.79721 0 0 1 0 358.84 Z" class="st19"/>
			</g>
			<g id="shape51-178" v:mID="51" v:groupContext="shape" transform="translate(340.157,-136.922)">
				<title>Circle.51</title>
				<v:userDefs>
					<v:ud v:nameU="visVersion" v:val="VT0(11):26"/>
				</v:userDefs>
				<path d="M0 358.84 A5.55118 5.79721 0 0 1 11.1 358.84 A5.55118 5.79721 0 0 1 0 358.84 Z" class="st19"/>
			</g>
			<g id="shape52-180" v:mID="52" v:groupContext="shape" v:layerMember="0" transform="translate(338.622,-117.3)">
				<title>Dynamic connector.52</title>
				<path d="M7.09 364.64 L7.09 345.02" class="st18"/>
			</g>
			<g id="shape53-183" v:mID="53" v:groupContext="shape" transform="translate(477.874,-136.922)">
				<title>Circle.53</title>
				<v:userDefs>
					<v:ud v:nameU="visVersion" v:val="VT0(11):26"/>
				</v:userDefs>
				<path d="M0 358.84 A5.55118 5.79721 0 0 1 11.1 358.84 A5.55118 5.79721 0 0 1 0 358.84 Z" class="st19"/>
			</g>
			<g id="shape54-185" v:mID="54" v:groupContext="shape" transform="translate(198.425,-247.729)">
				<title>Sheet.54</title>
				<desc>MVRP Interrupt generated</desc>
				<v:textBlock v:margins="rect(4,4,4,4)" v:tabSpace="42.5197"/>
				<v:textRect cx="35.4331" cy="348.358" width="70.87" height="32.5631"/>
				<rect x="0" y="332.077" width="70.8661" height="32.5631" class="st7"/>
				<text x="4" y="345.96" class="st8" v:langID="2057"><v:paragraph/><v:tabList/>MVRP Interrupt<v:newlineChar/><tspan
							x="4" dy="1.2em" class="st9">generated</tspan></text>			</g>
			<g id="shape55-189" v:mID="55" v:groupContext="shape" transform="translate(-184.031,1.09693) rotate(-53.8645)">
				<title>Sheet.55</title>
				<path d="M0 364.64 A120.472 87.9642 143.86 0 1 149.17 364.64" class="st20"/>
			</g>
			<g id="shape56-192" v:mID="56" v:groupContext="shape" transform="translate(-178.474,166.084) rotate(-82.1124)">
				<title>Sheet.56</title>
				<path d="M-0 364.64 A113.386 15.7087 172.11 0 1 114.47 364.64" class="st20"/>
			</g>
			<g id="shape57-195" v:mID="57" v:groupContext="shape" transform="translate(562.92,11.4817) rotate(73.8906)">
				<title>Sheet.57</title>
				<path d="M-0 364.64 A103.465 29.8819 16.11 0 1 107.69 364.64" class="st20"/>
			</g>
			<g id="shape58-198" v:mID="58" v:groupContext="shape" transform="translate(533.701,-129.138) rotate(50.5129)">
				<title>Sheet.58</title>
				<path d="M-0 364.64 A113.386 93.4252 39.49 0 1 146.92 364.64" class="st20"/>
			</g>
			<g id="shape60-201" v:mID="60" v:groupContext="shape" transform="translate(63.7795,-70.0438)">
				<title>Rectangle.60</title>
				<v:userDefs>
					<v:ud v:nameU="visVersion" v:val="VT0(15):26"/>
				</v:userDefs>
				<rect x="0" y="290.939" width="496.063" height="73.7008" class="st21"/>
			</g>
			<g id="shape61-203" v:mID="61" v:groupContext="shape" transform="translate(63.7795,-7.68161)">
				<title>Rectangle.61</title>
				<v:userDefs>
					<v:ud v:nameU="visVersion" v:val="VT0(15):26"/>
				</v:userDefs>
				<rect x="0" y="302.278" width="496.063" height="62.3622" class="st22"/>
			</g>
		</g>
	</g>
</svg>
